<svg id="图层_1" data-name="图层 1" xmlns="http://www.w3.org/2000/svg" viewBox="0 0 40 40"><defs><style>.cls-1{fill:#35c020;}</style></defs><title>icon_weixin_pc</title><path class="cls-1" d="M20,40A20,20,0,1,1,40,20,20,20,0,0,1,20,40ZM20,1A19,19,0,1,0,39,20,19,19,0,0,0,20,1Z"/><path class="cls-1" d="M24.33,16.76h.41c-.58-3.1-3.8-5.47-7.69-5.47-4.3,0-7.78,2.9-7.78,6.48A6.08,6.08,0,0,0,12,22.7a.46.46,0,0,1,.18.49l-.37,1.37c-.11.41.1.57.47.36l1.67-1a.63.63,0,0,1,.5-.06,9.19,9.19,0,0,0,2.62.38h.42a5,5,0,0,1-.26-1.59C17.21,19.4,20.4,16.76,24.33,16.76Zm-4.69-2.09a1,1,0,1,1-1,1A1,1,0,0,1,19.64,14.66Zm-5.2,2.07a1,1,0,1,1,1-1A1,1,0,0,1,14.44,16.73Z"/><path class="cls-1" d="M30.73,22.68c0-3-2.9-5.4-6.48-5.4s-6.48,2.42-6.48,5.4,2.9,5.4,6.48,5.4a7.63,7.63,0,0,0,2.21-.32.46.46,0,0,1,.36,0l1.41.81c.31.18.49,0,.4-.31l-.3-1.16a.33.33,0,0,1,.13-.35A5.08,5.08,0,0,0,30.73,22.68Zm-8.64-.85a.88.88,0,1,1,.88-.88A.88.88,0,0,1,22.09,21.83Zm4.29,0a.88.88,0,1,1,.88-.88A.88.88,0,0,1,26.39,21.83Z"/></svg>