<svg id="图层_1" data-name="图层 1" xmlns="http://www.w3.org/2000/svg" viewBox="0 0 40 40"><defs><style>.cls-1{fill:#4b95ce;}.cls-2{fill:#faaf07;}.cls-3{fill:#fff;}.cls-4{fill:#e91f1f;}</style></defs><title>icon_qq_pc</title><path class="cls-1" d="M20,40A20,20,0,1,1,40,20,20,20,0,0,1,20,40ZM20,1A19,19,0,1,0,39,20,19,19,0,0,0,20,1Z"/><path class="cls-2" d="M22.16,28.65c-.83,0-1.56,0-2.17.08s-1.33-.08-2.16-.08c-2.39,0-4.52.91-4.52,1.59s1.77.57,4.15.55A12.72,12.72,0,0,0,20,30.52a12.89,12.89,0,0,0,2.5.25c2.38,0,4.15.1,4.15-.55s-2.13-1.58-4.52-1.58"/><path d="M28.11,22q-.67-1.82-1.47-3.6,0-.43,0-.87c0-4.53-2.3-8.2-6.67-8.2s-6.67,3.67-6.67,8.2q0,.41,0,.82-.8,1.81-1.49,3.66c-.92,2.52-1,4.79-.64,5s1.06-.76,1.85-2.18A6.48,6.48,0,0,0,20,30.66a6.47,6.47,0,0,0,6.91-5.84c.79,1.4,1.61,2.26,1.83,2.14S29,24.52,28.11,22"/><path class="cls-3" d="M21.81,12c-.66,0-1.2.73-1.22,1.67s.5,1.7,1.16,1.71,1.2-.73,1.22-1.67-.5-1.7-1.16-1.71m-3.59,0c-.65,0-1.16.78-1.14,1.72s.56,1.69,1.21,1.68,1.16-.78,1.14-1.72S18.87,12,18.22,12m6.05,7.54a25.32,25.32,0,0,1-4.31.35,25.33,25.33,0,0,1-4.23-.34c-.87,1.08-.93,2.67-.93,4.45,0,3.26,1.83,5.9,5.21,5.9s5.21-2.64,5.21-5.9c0-1.78-.07-3.38-.94-4.46"/><path class="cls-2" d="M20,16c-2.27,0-4.11.46-4.11.83S18.3,18.19,20,18.19s4.11-1,4.11-1.38S22.28,16,20,16"/><path class="cls-4" d="M26.65,18.41v0a22,22,0,0,1-6.64.9,21.93,21.93,0,0,1-6.65-.91q-.53,1.2-1,2.42a21,21,0,0,0,3.43.81V24.7a13.9,13.9,0,0,0,1.71.2,7,7,0,0,0,1.21-.08V21.9c.43,0,.87,0,1.31,0a24.72,24.72,0,0,0,7.64-1.12q-.48-1.21-1-2.4"/><path d="M22.42,13.64a.81.81,0,0,0-.73-.18,1.12,1.12,0,0,0-.76.4s-.12.17,0,.28.24-.06.24-.06a.86.86,0,0,1,.55-.31.82.82,0,0,1,.49.12s.15.11.24,0a.22.22,0,0,0,0-.25m-3.81-.43a.61.61,0,0,0-.52.68.54.54,0,1,0,1,0,.61.61,0,0,0-.52-.68"/></svg>