<?xml version="1.0" standalone="no"?><!DOCTYPE svg PUBLIC "-//W3C//DTD SVG 1.1//EN" "http://www.w3.org/Graphics/SVG/1.1/DTD/svg11.dtd"><svg t="1551940232846" class="icon" style="" viewBox="0 0 1024 1024" version="1.1" xmlns="http://www.w3.org/2000/svg" p-id="1740" xmlns:xlink="http://www.w3.org/1999/xlink" width="128" height="128"><defs><style type="text/css"></style></defs><path d="M973.557996 586.14612v79.591925c31.643248-60.647559 49.572023-128.348277 49.57202201-199.87945C1023.13001801 208.75420601 794.070328 0.206249 511.664135 0.206249 229.26594 0.206249 0.206249 208.75420601 0.206249 465.858595c0 3.222701 0.22390999 6.445403 0.22391 9.67609999l183.68597599-207.54036299h106.67701001l-158.016321 217.408387h51.33931099V430.192968l109.77975902-155.753233v394.72892699H184.11613501V586.14612H17.463295c47.58882199 162.206632 188.78792 289.547315 367.835765 331.05858599-11.515359 26.389365-44.925895 90.067703-100.47950799 101.35115602-68.82826301 14.106315 186.78872601 3.422621 369.15523299-105.381532 140.095543-36.87314 255.401075-126.740924 318.031836-244.005668h-108.00447501V586.14612H680.09226V475.72661801l183.90988601-207.73228601h104.02208l-155.369388 217.408387h51.347308v-59.440047l109.77176299-155.15347399v315.33692199h-0.215913z m-625.667861 22.566905a84.094111 84.094111 0 0 1-7.96479-36.265385V356.446687c0-12.89880201 2.65492999-24.981932 7.96479-36.26538499a93.242424 93.242424 0 0 1 21.695257-29.42814101c9.06834601-8.25267401 19.911976-14.905993 32.306981-19.73604699 12.395005-4.83805001 25.669655-7.26107399 39.839944-7.26107401h90.29961c14.154296 0 27.436943 2.423024 39.831948 7.26107401 12.171095 4.83005399 22.790815 11.275456 31.87515499 19.336208l-98.04049099 130.37146099v-23.17466099a15.673684 15.673684 0 0 0-5.31785701-12.09112701c-3.542572-3.222701-7.96479001-4.83005399-13.27464999-4.83005299-5.317857 0-9.740075 1.607352-13.28264701 4.83005299a15.673684 15.673684 0 0 0-5.30985999 12.09112701v72.538768L354.97528 620.804153a84.41398201 84.41398201 0 0 1-7.085145-12.091128z m285.72485499-36.265385c0 12.89880201-2.65492999 24.981932-7.97278699 36.265385a93.242424 93.242424 0 0 1-21.68726 29.42814101c-9.06834601 8.25267401-19.911976 14.905993-32.30698101 19.74404298-12.395005 4.83005399-25.669655 7.253077-39.839944 7.25307702H441.508408c-14.154296 0-27.436943-2.423024-39.831948-7.253077-12.395005-4.83805001-23.238635-11.491369-32.31497799-19.75204001a99.879749 99.879749 0 0 1-11.06754-12.09112699l109.77176299-145.67729301v50.979455c0 4.83805001 1.775285 8.86842599 5.31785701 12.091128 3.534576 3.222701 7.96479001 4.83005399 13.27465099 4.830053 5.30986 0 9.740075-1.607352 13.27465-4.830053a15.673684 15.673684 0 0 0 5.31785699-12.091128V430.992645L607.721425 294.791533c7.30105801 7.452996 13.27464999 15.913587 17.70486501 25.38976899 5.30986 11.275456 7.96479001 23.366583 7.96478999 36.26538501v216.000953h0.22390999z" p-id="1741"></path></svg>