<?xml version="1.0" standalone="no"?><!DOCTYPE svg PUBLIC "-//W3C//DTD SVG 1.1//EN" "http://www.w3.org/Graphics/SVG/1.1/DTD/svg11.dtd"><svg t="1551939460357" class="icon" style="" viewBox="0 0 1024 1024" version="1.1" xmlns="http://www.w3.org/2000/svg" p-id="3588" xmlns:xlink="http://www.w3.org/1999/xlink" width="128" height="128"><defs><style type="text/css"></style></defs><path d="M551.35396347 928.43215703V446.08719703l270.42904492 271.33522173c15.14609778 15.14609778 39.87177876 15.14609778 54.88842272-1e-8 15.14609778-15.14609778 15.14609778-39.87177876 0-54.8884227L545.91690272 330.74383703c-8.02613728-8.02613728-18.77080494-11.78029827-29.25656494-11.26248295-10.61521383-0.51781531-21.23042765 3.23634569-29.25656495 11.26248295l-321.04549135 330.10725926c-15.14609778 15.14609778-15.14609778 39.87177876 0 54.88842273 15.14609778 15.14609778 39.87177876 15.14609778 54.88842271 0l252.43496298-261.49673087v474.18936888c0 21.35988148 17.47626667 38.83614815 38.83614814 38.83614815s38.83614815-17.47626667 38.83614816-38.83614815zM875.11798518 243.75086518h-717.17420246c-21.48933531 0-38.83614815-17.34681283-38.83614815-38.83614815s17.34681283-38.83614815 38.83614815-38.83614815h717.17420246c21.48933531 0 38.83614815 17.34681283 38.83614815 38.83614815s-17.47626667 38.83614815-38.83614815 38.83614815z" p-id="3589"></path></svg>