<?xml version="1.0" standalone="no"?><!DOCTYPE svg PUBLIC "-//W3C//DTD SVG 1.1//EN" "http://www.w3.org/Graphics/SVG/1.1/DTD/svg11.dtd"><svg t="1551940217292" class="icon" style="" viewBox="0 0 1024 1024" version="1.1" xmlns="http://www.w3.org/2000/svg" p-id="1740" xmlns:xlink="http://www.w3.org/1999/xlink" width="128" height="128"><defs><style type="text/css"></style></defs><path d="M1021.632671 584.711228c0 11.280461-4.042431 21.05100201-12.127294 29.31162199-8.07687399 8.252632-17.64769001 12.38294199-28.69647 12.382942h-142.899152c0 74.265697-14.24437799 137.234955-42.741123 188.89978501l132.689217 136.16443c8.07687399 8.260621 12.119305 18.03116199 12.11930499 29.31961099 0 11.280461-4.042431 21.05100201-12.11930499 29.30363301-7.653457 8.252632-17.216284 12.38294199-28.70445899 12.38294301-11.488175 0-21.05100201-4.13030999-28.70445901-12.38294301l-126.313998-128.32722499a123.749531 123.749531 0 0 1-9.554838 8.46833499c-4.250145 3.467224-13.18184202 9.65070599-26.7871 18.55044599a400.28060199 400.28060199 0 0 1-41.478862 23.75927102c-14.044653 6.95042601-31.47664001 13.24575399-52.295961 18.885984-20.82730998 5.64022999-41.454895 8.468335-61.898733 8.46833399V376.206449H470.47191099v583.691947c-21.69811001 0-43.27638601-2.931961-64.75879298-8.803872-21.47441799-5.86392199-39.96894201-13.030051-55.48356901-21.50637399a533.41720199 533.41720199 0 0 1-42.086026-25.39701501c-12.550711-8.444368-21.809956-15.49864999-27.769746-21.17083699L270.826928 873.888877l-116.727205 134.830267c-8.516269 9.10745401-18.726204 13.66916999-30.62181698 13.669171-10.201947 0-19.34934599-3.467224-27.43420902-10.41765-8.084863-7.813237-12.438865-17.471932-13.06200699-28.976084-0.631131-11.50415299 2.660335-21.610231 9.87439799-30.31024702l128.854499-147.87629599c-24.662027-49.50780199-36.989047-109.001847-36.989046-178.490125H41.822388c-11.04878 0-20.611607-4.13030999-28.696469-12.38294199S0.99862401 595.91179799 0.99862401 584.623349c0-11.280461 4.042431-21.05100201 12.12729499-29.303634 8.084863-8.260621 17.655679-12.38294199 28.696469-12.382942h142.899153V351.40062L74.361565 238.707857c-8.084863-8.252632-12.119305-18.023173-12.119306-29.311622 0-11.280461 4.03444201-21.05100201 12.119306-29.303634 8.084863-8.260621 17.655679-12.38294199 28.704459-12.382942s20.611607 4.122321 28.70445799 12.382942l110.35198701 112.692763h538.426302l110.359976-112.692763c8.084863-8.260621 17.655679-12.38294199 28.69647-12.382942 11.056769 0 20.619596 4.122321 28.704459 12.382942 8.084863 8.252632 12.12729399 18.023173 12.12729399 29.303634 0 11.28844999-4.042431 21.058991-12.12729399 29.31961099l-110.359976 112.68477401v191.536153h142.899152c11.04878 0 20.611607 4.122321 28.704459 12.382942 8.07687399 8.252632 12.119305 18.023173 12.119305 29.303634l-0.039945 0.07989zM715.43047401 209.48411399H307.160877c0-57.760433 19.884608-106.94068601 59.645836-147.54874798C406.57593001 21.327305 454.733591 1.027269 511.295675 1.027269c56.562084 0 104.71974601 20.300036 144.48896301 60.90809699 39.761228 40.608061 59.645836 89.796303 59.645836 147.548748z" p-id="1741"></path></svg>