<?xml version="1.0" standalone="no"?><!DOCTYPE svg PUBLIC "-//W3C//DTD SVG 1.1//EN" "http://www.w3.org/Graphics/SVG/1.1/DTD/svg11.dtd"><svg t="1551940350432" class="icon" style="" viewBox="0 0 1024 1024" version="1.1" xmlns="http://www.w3.org/2000/svg" p-id="1746" xmlns:xlink="http://www.w3.org/1999/xlink" width="128" height="128"><defs><style type="text/css"></style></defs><path d="M447.71428585 897.71428583l449.99999998 2e-8 2e-8-321.42857168-208.9285717-2e-8q-20.08928583 0-34.15178583-14.0625t-14.0625-34.15178583l0-208.92857168-192.85714247 0 0 578.57142833z m128.5714283-723.21428583l0-32.14285751q0-6.52901748-4.77120497-11.30022335t-11.30022335-4.77120499l-353.57142832 0q-6.52901748 0-11.30022333 4.77120499t-4.77120497 11.30022333l0 32.14285753q0 6.52901748 4.77120497 11.30022334t11.30022335 4.77120498l353.57142832 0q6.52901748 0 11.30022333-4.77120498t4.77120497-11.30022334z m128.57142832 337.5l150.16741085 0-150.16741083-150.16741084-2e-8 150.16741084z m257.14285753 64.28571415l0 337.50000002q0 20.08928583-14.0625 34.15178583t-34.15178583 14.0625l-482.14285753 0q-20.08928583 0-34.15178585-14.0625t-14.0625-34.15178585l0-80.35714247-273.21428582 0q-20.08928583 0-34.15178584-14.0625t-14.0625-34.15178585l0-675q0-20.08928583 14.0625-34.15178583t34.15178584-14.0625l546.42857167 0q20.08928583 0 34.15178585 14.0625t14.0625 34.15178583l0 164.73214249q10.546875 6.52901748 18.08035751 14.0625l204.91071417 204.91071415q14.0625 14.0625 24.10714247 38.16964249t10.04464249 44.19642832z" p-id="1747"></path></svg>