<?xml version="1.0" standalone="no"?><!DOCTYPE svg PUBLIC "-//W3C//DTD SVG 1.1//EN" "http://www.w3.org/Graphics/SVG/1.1/DTD/svg11.dtd"><svg t="1551940804459" class="icon" style="" viewBox="0 0 1311 1024" version="1.1" xmlns="http://www.w3.org/2000/svg" p-id="1740" xmlns:xlink="http://www.w3.org/1999/xlink" width="163.875" height="128"><defs><style type="text/css"></style></defs><path d="M295.55454875 642.71704625c0-24.06861188-8.56988437-44.62481906-25.70965406-61.64942813-17.13976969-17.03420531-37.8111375-25.54650937-62.03329782-25.54650937-24.22216031 0-44.90312438 8.51230406-62.04289406 25.54650937-17.1301725 17.02460813-25.70005781 37.58081531-25.70005781 61.64942813 0 24.06861188 8.56988437 44.62481906 25.70005781 61.64942812 17.13976969 17.03420531 37.8111375 25.54650937 62.04289406 25.54650938 24.22216031 0 44.89352812-8.51230406 62.03329782-25.54650938 17.13976969-17.03420531 25.70965406-37.58081531 25.70965406-61.64942812z m131.60962875-305.18578219c0-24.06861188-8.56988437-44.62481906-25.70965405-61.64942812-17.1301725-17.03420531-37.8111375-25.54650937-62.03329783-25.54650938-24.22216031 0-44.90312438 8.51230406-62.03329687 25.54650938-17.13976969 17.02460813-25.70965406 37.58081531-25.70965406 61.64942812 0 24.06861188 8.56988437 44.62481906 25.70965406 61.64942813 17.1301725 17.02460813 37.8111375 25.54650937 62.03329687 25.54650937 24.22216031 0 44.90312438-8.52190125 62.03329783-25.54650937 17.13976969-17.03420531 25.70965406-37.58081531 25.70965405-61.64942813zM720.545975 665.1926l69.24044531-260.22507655c2.73506999-11.80398469 1.02685031-22.82103657-5.14384968-33.04155939-6.17070094-10.21092656-14.9709075-16.9094475-26.39102251-20.09556375-11.420115-3.16692281-22.38918375-1.6986225-32.90720531 4.43369156-10.50842531 6.13231406-17.37009094 15.09566438-20.56580437 26.90924625l-69.23084907 260.22507657c-27.41787281 2.27442656-51.87035437 12.14946656-73.34784843 29.63471812-21.47749406 17.48525156-35.87259655 39.84564562-43.18530938 67.10037375-9.13609219 34.97050406-4.56804563 68.11762781 13.713735 99.46056563 18.28178062 31.33334062 45.00868875 51.53446875 80.19991781 60.62257782 35.19122906 9.08810812 68.54948063 4.54885219 100.08435282-13.62736407 31.52527594-18.15702375 51.86075813-44.72078719 61.0064475-79.7008875 7.31271281-27.25472812 5.94037875-53.80889531-4.11699938-79.7008875-10.04778188-25.882395-26.50618311-46.54416656-49.35601031-61.99491094z m452.41889625-22.47555375c0-24.06861188-8.56988437-44.62481906-25.70005781-61.64942813-17.13976969-17.03420531-37.8111375-25.54650937-62.04289406-25.54650937-24.22216031 0-44.89352812 8.51230406-62.03329782 25.54650937-17.13976969 17.02460813-25.70965406 37.58081531-25.70965406 61.64942813 0 24.06861188 8.56988437 44.62481906 25.70965406 61.64942813 17.13976969 17.03420531 37.8111375 25.54650937 62.03329782 25.54650937 24.22216031 0 44.90312438-8.51230406 62.04289406-25.54650937 17.1301725-17.03420531 25.70005781-37.58081531 25.70005781-61.64942813z m-438.70516124-435.97968844c0-24.07820906-8.56988437-44.62481906-25.70965407-61.65902437C691.42947969 128.06332156 670.73891844 119.54142031 646.51675812 119.54142031c-24.22216031 0-44.90312438 8.51230406-62.03329781 25.53691313-17.13976969 17.03420531-25.70965406 37.58081531-25.70965406 61.65902437 0 24.06861188 8.56988437 44.62481906 25.70965406 61.64942813 17.1301725 17.02460813 37.8111375 25.54650937 62.03329782 25.54650937 24.22216031 0 44.90312438-8.52190125 62.03329781-25.54650937 17.13976969-17.03420531 25.70965406-37.58081531 25.70965405-61.64942813z m307.09553155 130.79390625c0-24.06861188-8.56988437-44.62481906-25.70965406-61.64942812-17.1301725-17.03420531-37.8111375-25.54650937-62.03329688-25.54650938-24.22216031 0-44.90312438 8.51230406-62.03329781 25.54650938-17.13976969 17.02460813-25.70965406 37.58081531-25.70965406 61.64942812 0 24.06861188 8.56988437 44.62481906 25.70965406 61.64942813 17.1301725 17.02460813 37.8111375 25.54650937 62.03329781 25.54650937 24.22216031 0 44.90312438-8.52190125 62.03329688-25.54650937 17.13976969-17.03420531 25.70965406-37.58081531 25.70965406-61.64942813zM1260.70782219 642.71704625c0 118.52927906-32.21624062 228.2103675-96.64872188 329.03366906-8.68504594 13.16672062-21.01685063 19.75008187-37.02420468 19.75008188H166.00821781c-15.99775781 0-28.33915969-6.58336031-37.02420562-19.75008188C64.54193469 871.37846 32.32569406 761.70696781 32.32569406 642.71704625c0-82.65668156 16.21848281-161.67620062 48.66504469-237.06815438C113.43730156 330.26653531 157.08325344 265.31583031 211.919 210.8255675c54.84534281-54.50945719 120.18951375-97.87710375 196.05170719-130.122135C483.83289969 48.45840125 563.34185281 32.33588563 646.51675812 32.33588563c83.17490531 0 162.68385844 16.12251562 238.54605094 48.36754687 75.86219344 32.24503125 141.20636438 75.622275 196.05170719 130.122135 54.83574563 54.49026375 98.48169844 119.44096875 130.92826125 194.82332437 32.43696562 75.39195281 48.66504469 154.41147187 48.66504469 237.06815438z" p-id="1741"></path></svg>