<?xml version="1.0" standalone="no"?><!DOCTYPE svg PUBLIC "-//W3C//DTD SVG 1.1//EN" "http://www.w3.org/Graphics/SVG/1.1/DTD/svg11.dtd"><svg t="1551939444297" class="icon" style="" viewBox="0 0 1024 1024" version="1.1" xmlns="http://www.w3.org/2000/svg" p-id="3251" xmlns:xlink="http://www.w3.org/1999/xlink" width="128" height="128"><defs><style type="text/css"></style></defs><path d="M911.18705778 149.44028445l-41.28768-41.14204445C847.98122667 86.16163555 818.70848 74.94769778 789.94545778 75.09333333c-28.83584 0-58.10858667 11.06830222-80.09955556 33.13208889L187.5968 630.40170667c-15.58300445 15.65582222-73.76440889 235.27424-77.55093333 240.44430222l-14.41792 57.74449778 57.67168-14.49073778c5.02442667-3.78652445 224.64284445-62.11356445 240.29866666-77.62375111l522.24910222-522.32192C937.91118222 292.09031111 948.97948445 262.9632 948.90666667 234.12736 948.97948445 205.36433778 933.17802667 171.35843555 911.18705778 149.44028445zM342.98993778 785.94048c0.94663111 4.58752-170.97614222 66.04572445-171.41304889 65.60881778 0.43690667 0.43690667 62.04074667-171.41304889 66.62826666-170.68487111l397.14816-397.14816 104.93041778 104.8576L342.98993778 785.94048zM865.31185778 263.61856l-74.41976889 74.41976889-104.78478222-104.8576 74.34695111-74.41976889c8.22840889-8.15559111 18.71416889-12.16056889 29.56401777-12.23338667 10.63139555 0.14563555 21.11715555 4.07779555 29.41838223 12.23338667l41.14204444 41.21486222c8.15559111 8.30122667 16.89372445 23.37450667 16.82090667 34.15153778C877.54524445 244.97720889 873.46744889 255.46296889 865.31185778 263.61856z" p-id="3252"></path></svg>