<?xml version="1.0" standalone="no"?><!DOCTYPE svg PUBLIC "-//W3C//DTD SVG 1.1//EN" "http://www.w3.org/Graphics/SVG/1.1/DTD/svg11.dtd"><svg t="1551940311222" class="icon" style="" viewBox="0 0 1024 1024" version="1.1" xmlns="http://www.w3.org/2000/svg" p-id="1740" xmlns:xlink="http://www.w3.org/1999/xlink" width="128" height="128"><defs><style type="text/css"></style></defs><path d="M878.72 231.2h-151.2v75.84h151.2V231.2z" p-id="1741"></path><path d="M986.72 760.64c0-187.2-0.48-374.4 0-562.08-0.96-18.24 0.48-38.4-10.56-54.72-15.84-11.04-36-9.6-54.24-10.56-108 0.48-216 0.48-324 0.48v-86.4H534.08C368 77.12 202.4 105.44 36.8 134.24v755.52c164.64 28.8 329.76 56.64 493.92 86.4h67.2v-96.96c111.84 0 223.68 0.48 335.52 0 17.76-0.96 45.12-1.44 49.44-24 6.72-30.72 3.36-62.88 3.84-94.56zM354.56 680.96c-18.24-45.12-40.8-88.32-53.76-135.36-14.4 43.68-35.52 84.96-52.32 128.16-23.52-0.48-47.52-1.44-71.04-2.4 27.84-54.24 54.72-108.96 83.04-162.72-24-55.68-50.88-109.92-75.84-165.12 24-1.44 47.52-2.88 71.52-4.32 16.32 42.24 33.6 84 47.04 127.2 14.4-46.08 35.52-89.28 53.76-133.44 24.48-1.92 48.96-3.36 73.44-4.32-28.8 59.04-57.6 118.08-86.88 177.12 29.76 60.48 60 120.48 89.76 180.96-26.88-2.4-52.32-3.84-78.72-5.76z m600 165.6H597.92v-64.8h86.4v-75.84h-86.4v-43.2h86.4v-75.84h-86.4v-43.2h86.4V468.8h-86.4v-43.2h86.4V349.76h-86.4v-43.2h86.4V231.2h-86.4V166.4h356.16v680.16z" p-id="1742"></path><path d="M878.72 350.24h-151.2V425.6h151.2V350.24z m0 118.56h-151.2v75.84h151.2V468.8z m0 119.04h-151.2v75.84h151.2v-75.84z m0 118.56h-151.2v75.84h151.2v-75.84z" p-id="1743"></path></svg>