<?xml version="1.0" standalone="no"?><!DOCTYPE svg PUBLIC "-//W3C//DTD SVG 1.1//EN" "http://www.w3.org/Graphics/SVG/1.1/DTD/svg11.dtd"><svg t="1551939517369" class="icon" style="" viewBox="0 0 1024 1024" version="1.1" xmlns="http://www.w3.org/2000/svg" p-id="5190" xmlns:xlink="http://www.w3.org/1999/xlink" width="128" height="128"><defs><style type="text/css"></style></defs><path d="M407.42146338 352.54138818l-0.95449395-247.32617519c-0.42109981-19.0547833-16.15621026-30.49467188-35.24608564-30.91577168h-25.61692764c-19.03372823-0.42109981-34.1512251 16.16322832-33.73012529 35.20397549l1.0667874 134.49939872-169.49984238-166.96622284a47.00881758 47.00881758 0 0 0-66.66717744 0 47.4439544 47.4439544 0 0 0 0 66.85667226l167.94878994 166.42581152-128.75138174 0.51935713c-19.03372823-0.48426503-36.69186269 12.72424394-39.5834168 35.23204864v24.29748105c0.48426503 19.09689346 16.21235742 34.88113213 35.24608565 35.30223193l245.83828711-1.45279599c0.36495352 0.03509209 0.6105955 0.17545869 0.93343886 0.17545869l17.24405274 0.37898965a32.46682412 32.46682412 0 0 0 24.11500341-9.68530342c6.17613575-6.13402559 8.45709521-14.7104332 8.20443604-24.29748105l-1.83880459-17.30019903c0-0.33688037 1.2773373-0.56848535 1.2773373-0.95449394h0.01403702z m368.624083 359.42304463l128.57592305-0.51233906c19.04074629 0.42109981 36.66378955-11.29250303 39.5834168-33.79328965v-24.29748017c-0.47724698-19.10391153-16.26148565-34.88113213-35.2390667-35.37241612l-242.69407295 1.47385107c-0.37197158 0-0.60357656-0.14738467-0.96853095-0.14738554l-17.2019417-0.4210998a32.56508057 32.56508057 0 0 0-24.17816953 9.69232235c-6.21122783 6.09191631-8.42902208 14.69639619-8.23952637 24.28344405l1.89495088 17.26510782c0.03509209 0.42109981-1.24224521 0.6667418-1.2422461 0.98958515l0.98958516 243.51521836c0.48426503 19.04074629 16.21235742 30.44554365 35.24608565 30.85962539l24.21326073 0.04211016c18.9846 0.43513682 34.15824317-16.21235742 33.68801515-35.2741588l-1.07380547-131.60784462 169.49984238 168.0610834a46.95267041 46.95267041 0 0 0 66.63208535 0 47.35271602 47.35271602 0 0 0 0-66.83561719L776.04554638 711.95741387v0.00701894zM399.75743955 628.59361396a32.53700742 32.53700742 0 0 0-24.12202236-9.69934042l-17.24405274 0.4210998c-0.35091651 0-0.57550342 0.15440362-0.96151201 0.15440361l-245.81723203-1.47385019c-19.03372823 0.49128398-34.78989375 16.26850371-35.24608564 35.37241524v24.29748017c2.8704999 22.50078662 20.52863438 34.20737138 39.53428857 33.78627158l130.21821387 0.42110068-169.36649385 167.93475381c-18.38804151 18.43015166-18.38804151 48.35633818 0 66.84263525a46.98074355 46.98074355 0 0 0 66.64612236 0l169.52791553-166.96622284-1.0878416 132.40793495c-0.42109981 19.10391153 14.69639619 35.7443877 33.69503321 35.26713985h25.61692763c19.08987539-0.48426503 34.82498496-11.82589717 35.24608565-30.92278975l0.98958515-245.33296787c0-0.35091651-1.2773373-0.57550342-1.27733731-0.95449395l1.83880459-17.26510693c0.2105499-9.58704786-2.00724434-18.19152773-8.18338095-24.28344404h-0.00701807zM624.02837979 395.12865342a32.42471396 32.42471396 0 0 0 24.16413252 9.64319414l17.19492363-0.37898965c0.38600859 0 0.61761357-0.1403666 1.00362216-0.19651377l246.20324151 1.47385107c19.03372823-0.43513682 34.7618206-16.22639355 35.2390667-35.32328701l0.06316523-24.30449912c-2.92664619-22.53587783-20.61285381-35.68122246-39.58341767-35.26714072l-130.64633174-0.51233818 167.85755156-166.43984854c18.45822481-18.40909658 18.45822481-48.27913594 0.05614717-66.76543388a46.95968847 46.95968847 0 0 0-66.63208623 0L709.44855224 245.06960292l1.08784161-135.53811298c0.4561919-19.04074629-14.71745127-35.68824052-33.70205127-35.26713984h-24.21326074c-19.04074629 0.48426503-34.76883867 11.88204346-35.24608476 30.92278974l-0.97554903 247.37530342c0 0.37899052 1.26330029 0.61761357 1.26330029 0.95449395l-1.8738958 17.30019902c-0.19651377 9.58704786 2.02128047 18.16345459 8.23952725 24.30449912v0.00701807z" p-id="5191"></path></svg>