<?xml version="1.0" standalone="no"?><!DOCTYPE svg PUBLIC "-//W3C//DTD SVG 1.1//EN" "http://www.w3.org/Graphics/SVG/1.1/DTD/svg11.dtd"><svg t="1551939563518" class="icon" style="" viewBox="0 0 1024 1024" version="1.1" xmlns="http://www.w3.org/2000/svg" p-id="6576" xmlns:xlink="http://www.w3.org/1999/xlink" width="128" height="128"><defs><style type="text/css"></style></defs><path d="M90.125 849.5h843.75q12.19042969-0.94042969 20.15332031-8.90332031Q962 832.625 962 821.375v-56.25q0-12.19042969-7.97167969-20.15332031Q946.06542969 737 933.875 737H90.125q-11.25 0-19.22167969 7.97167969Q62.94042969 752.93457031 62 765.125v56.25q0.94042969 11.25 8.90332031 19.22167969Q78.86621094 848.55957031 90.125 849.5z m843.75-450H483.875q-12.19042969 0-19.6875 7.96289063T455.75 427.625v56.25q0.94042969 12.19042969 8.4375 19.6875T483.875 512h450q12.19042969-0.94042969 20.15332031-8.4375 7.97167969-7.49707031 7.97167969-19.6875v-56.25q0-12.19042969-7.97167969-20.16210938Q946.06542969 399.5 933.875 399.5zM90.125 174.5h843.75q12.19042969 0 20.15332031-7.96289063Q962 158.57421875 962 146.375V90.125q0-12.19042969-7.97167969-20.16210938Q946.06542969 62 933.875 62H90.125Q78.875 62 70.90332031 69.96289062 62.94042969 77.92578125 62 90.125v56.25q0.94042969 12.19042969 8.90332031 20.16210938Q78.86621094 174.5 90.125 174.5z m-6.56542969 287.81542969l225 141.55664062V321.69042969l-225 140.625z" p-id="6577"></path></svg>