<?xml version="1.0" standalone="no"?><!DOCTYPE svg PUBLIC "-//W3C//DTD SVG 1.1//EN" "http://www.w3.org/Graphics/SVG/1.1/DTD/svg11.dtd"><svg t="1551939569420" class="icon" style="" viewBox="0 0 1024 1024" version="1.1" xmlns="http://www.w3.org/2000/svg" p-id="6774" xmlns:xlink="http://www.w3.org/1999/xlink" width="128" height="128"><defs><style type="text/css"></style></defs><path d="M933.99804688 62H90.00195312Q77.99609375 62 70.49902344 69.99804687 63.00195312 77.99609375 62 90.00195312v55.99511719q1.00195313 12.00585938 8.49902344 20.00390625 7.49707031 7.99804688 19.50292968 9h843.99609375q12.00585938-1.00195313 20.00390625-9 7.99804688-7.99804688 7.99804688-20.00390625V90.00195312q0-12.00585938-7.99804688-20.00390624-7.99804688-7.99804688-20.00390625-7.99804688zM90.00195312 512h450.00000001q11.99707031 0 19.99511718-7.99804688 8.00683594-7.99804688 8.00683594-20.00390624v-55.99511719q0-12.00585938-8.00683594-20.00390625-8.00683594-7.99804688-19.99511719-9h-449.99999999q-12.00585938 1.00195313-19.50292969 9-7.49707031 7.99804688-8.49902344 20.00390625v55.99511718q1.00195313 12.00585938 8.49902344 20.00390625 7.49707031 7.99804688 19.50292968 7.99804688z m843.99609375 225H90.00195312q-12.00585938 0-19.50292968 7.99804688-7.49707031 7.99804688-8.49902344 20.00390624v55.99511719q1.00195313 12.00585938 8.49902344 20.00390625 7.49707031 7.99804688 19.50292969 7.99804688h843.99609375q12.00585938 0 20.00390625-7.99804688 7.99804688-7.99804688 7.99804687-20.00390625v-55.99511718q0-12.00585938-7.99804687-20.00390625-7.99804688-7.99804688-20.00390625-7.99804688z m7.00488282-288l-225-141.99609375v282.99902344l225-141.00292969z" p-id="6775"></path></svg>