<?xml version="1.0" standalone="no"?><!DOCTYPE svg PUBLIC "-//W3C//DTD SVG 1.1//EN" "http://www.w3.org/Graphics/SVG/1.1/DTD/svg11.dtd"><svg t="1551939537955" class="icon" style="" viewBox="0 0 1024 1024" version="1.1" xmlns="http://www.w3.org/2000/svg" p-id="5784" xmlns:xlink="http://www.w3.org/1999/xlink" width="128" height="128"><defs><style type="text/css"></style></defs><path d="M332.49359023 427.62565918L427.62565918 332.43734023l-166.27370098-166.4283876L365.81442295 62.00351563H62.24960762L62.00351563 365.30817734l103.75934589-104.51871474L332.49359023 427.62565918z m525.74354824 335.57081572L691.47828565 596.37434082 596.37434082 691.54859727l166.27370098 166.4424501L658.21370117 961.99648437h303.56481622L961.99648437 658.69182266l-103.75934589 104.50465224zM691.56265977 427.62565918l166.4143251-166.27370098L961.99648437 365.80036133V62.27070136L658.71291641 62.00351563 763.2245999 165.7839544 596.37434082 332.50765185 691.56265977 427.62565918zM332.42327773 596.37434082L166.00895263 762.66913555 62.00351563 658.20666992v303.55778497l303.30466171 0.23202949-104.51871474-103.7593459L427.62565918 691.50640977 332.42327773 596.37434082z" p-id="5785"></path></svg>