<?xml version="1.0" standalone="no"?><!DOCTYPE svg PUBLIC "-//W3C//DTD SVG 1.1//EN" "http://www.w3.org/Graphics/SVG/1.1/DTD/svg11.dtd"><svg t="1551939585887" class="icon" style="" viewBox="0 0 1024 1024" version="1.1" xmlns="http://www.w3.org/2000/svg" p-id="7388" xmlns:xlink="http://www.w3.org/1999/xlink" width="128" height="128"><defs><style type="text/css"></style></defs><path d="M373.32896654 491.77968754c-19.65213582 0-35.58551438 15.93337742-35.58551438 35.58434929l0 34.71578568c0 19.65213582 15.93337742 35.5843493 35.58551438 35.5843493s35.5843493-15.93337742 35.5843493-35.5843493l0-34.71578568C408.91331584 507.7130661 392.98110237 491.77968754 373.32896654 491.77968754z" p-id="7389"></path><path d="M686.64891506 562.08098759l0-34.71578567c0-19.65213582-15.93337742-35.5843493-35.5843493-35.5843493-19.65213582 0-35.5843493 15.93337742-35.5843493 35.5843493l0 34.71578567c0 19.65213582 15.93337742 35.5843493 35.5843493 35.5843493C670.71553763 597.66650083 686.64891506 581.73312341 686.64891506 562.08098759z" p-id="7390"></path><path d="M411.25937038 701.23520341c12.77115278 20.5614501 47.82341917 55.35873707 98.1535653 55.35873707 50.08797355 0 85.56870087-34.53648441 98.64024064-54.94075506 10.50077753-16.40258901 5.73997511-38.00026226-10.52988416-48.71526969-16.26403726-10.70336455-38.25524281-6.15097117-49.17283726 9.97335154-0.15019349 0.22587278-15.51073849 22.51280953-38.93868317 22.51280953-22.77943296 0-36.94541027-20.63014457-37.9012972-22.0668837-10.45420487-16.44333853-32.2195365-21.43583573-48.80142678-11.12600348C406.01189262 662.60389319 400.88550173 684.54386915 411.25937038 701.23520341z" p-id="7391"></path><path d="M795.39523698 192.27992178c-24.08810041-24.35472384-46.89081913-19.44838485-55.54968121-16.20000085-8.33984512 3.10401024-27.9570523 13.69210994-30.01901966 44.77645937-1.54618425 23.39883805-8.12561522 44.2210907-20.60685768 64.12122112C644.41411243 154.67901269 517.88085475 32.55261184 475.13725383 11.06554653c-28.21785486-14.19042816-48.82471253-6.52703858-58.58965618-0.69508438-9.9966373 5.96002589-26.91500829 20.90258887-27.89301703 54.03144078-3.52664917 120.02368398-67.43364039 238.88889401-106.5923766 306.42732146-10.65679303-20.10388253-23.04605639-42.33260373-36.1758117-62.19198464-12.56274375-18.99663815-28.80233131-21.85847581-37.36339229-21.87011868-0.02328576 0-0.04075065 0-0.0640364 0-10.72665031 0-26.22574592 4.13557646-39.31475058 23.78654834C39.47667456 505.22845981 26.96632434 685.4240768 132.95675961 831.64905699c6.96132039 9.60310613 17.8276864 14.70504619 28.84308082 14.69922532 7.2395867 0 14.54903069-2.20051797 20.85601735-6.77037625 15.91009166-11.53699954 19.46002773-33.78900651 7.92884907-49.69909817-99.91514453-137.83390549-51.33842659-291.88411278 17.05692273-406.9327633 9.37141134 16.73790578 18.00698766 33.50608327 25.11384463 47.30181518 3.53247118 6.85187641 6.64928939 12.90388253 9.26080341 17.79275662 7.5935323 14.23583573 22.32768626 23.14967837 38.45782983 23.25446542 16.32108771 0.38771029 30.98654834-8.61811143 38.7593819-22.76196807 3.44631296-6.26623602 8.0790437-14.14385664 13.54075136-23.43958755 38.12134912-64.87451989 115.70298539-196.91605789 126.05356828-339.69006706 48.38460985 38.58473757 159.46650738 160.69949554 173.68487823 265.94827605 2.14346752 15.84605525 12.79443854 29.02238322 27.79521593 34.38628978 15.16843577 5.40931527 31.95291307 1.92341561 43.80310869-9.12225166 34.00905842-31.66998983 56.52768882-65.78383531 68.06585344-103.40104306 81.61242567 101.00376007 196.6901851 322.04866901 46.37503602 515.73264384-12.04696064 15.52820338-9.23169565 37.87801145 6.29534379 49.93079296 15.52820338 12.03531776 37.87801145 9.23751651 49.93079296-6.29534379C1053.39719907 602.42730439 925.16639971 323.56815986 795.39523698 192.27992178z" p-id="7392"></path><path d="M749.08423737 870.51904683c-74.87115719 53.51682162-148.90169458 78.94269725-232.96961878 80.01384903-86.0833189 1.21668835-179.23973006-29.19702755-242.71709638-79.05214123-15.45252409-12.14010482-37.82678187-9.44592555-49.96572274 6.00659854-12.14010482 15.45834496-9.45174755 37.82678187 6.00659854 49.96572274 74.35537522 58.3987109 182.04801024 94.27879139 282.28682866 94.2787914 1.76623616 0 3.53247118-0.01164288 5.29404928-0.02910777 97.93933539-1.25045305 187.38863104-31.76779093 273.45448618-93.28914091 15.98577095-11.42755555 19.68590051-33.65045589 8.25368804-49.64204772C787.29290752 862.7811419 765.06302237 859.07984839 749.08423737 870.51904683z" p-id="7393"></path></svg>