<?xml version="1.0" standalone="no"?><!DOCTYPE svg PUBLIC "-//W3C//DTD SVG 1.1//EN" "http://www.w3.org/Graphics/SVG/1.1/DTD/svg11.dtd"><svg t="1551939488541" class="icon" style="" viewBox="0 0 1024 1024" version="1.1" xmlns="http://www.w3.org/2000/svg" p-id="4437" xmlns:xlink="http://www.w3.org/1999/xlink" width="128" height="128"><defs><style type="text/css"></style></defs><path d="M871.22866221 62.43997872a91.36123945 91.36123945 0 0 1 34.7172706 6.64125907c10.8930709 4.42750606 20.42977852 10.72440352 28.59606826 18.89069327a92.40135205 92.40135205 0 0 1 19.40372139 28.59606826c4.76483994 10.8930709 7.14726036 22.80517119 7.14726035 35.74332773v718.94267402c0 25.86928623-8.34198398 47.31809414-25.01892422 64.339396-16.67694023 17.02130185-37.61271914 25.53195234-62.8073376 25.53195234H153.3050167c-27.23267724 0-49.19451328-8.85501211-65.87145352-26.55800947-16.67694023-17.69596963-25.01892422-39.82647217-25.01892334-66.3774539V151.28526992c0-23.82419971 8.1733166-44.59131211 24.51292295-62.28728174C103.26716914 71.28093535 125.05331094 62.43997872 152.28598731 62.43997872h718.9426749zM634.30085761 828.36341387c12.25646192 0 21.10444628-2.89544854 26.55098174-8.67931788 5.44653545-5.79089707 8.1733166-13.45118555 8.17331749-22.98086542 0-8.85501211-2.72678203-16.33960635-8.17331749-22.46783731-5.44653545-6.12823096-14.29451982-9.18531826-26.55098173-9.18531826H572.00654815c0.68169551-1.36339102 1.0190294-3.40847666 1.01902939-6.12823096V252.38702305h63.3203666c12.24943418 0 20.76008467-3.06411503 25.53195234-9.192346 4.76483994-6.12823096 7.14726036-13.61985205 7.14726036-22.46783731 0-8.85501211-2.38944815-16.33960635-7.14726036-22.4678373-4.77186768-6.12823096-13.28251904-9.19234599-25.53195234-9.19234599H387.16167763c-12.24943418 0-20.76008467 3.06411503-25.52492461 9.19234599-4.76483994 6.12823096-7.15428808 13.61985205-7.1542872 22.4678373 0 8.85501211 2.38944815 16.33960635 7.1542872 22.46783731 4.76483994 6.12823096 13.27549043 9.19234599 25.52492461 9.192346h57.19213653v506.52779326c0 1.35636328 0.16866651 2.38242041 0.51302813 3.06411504 0.33733388 0.67466778 0.50600039 1.7007249 0.50600039 3.06411592H389.2137919c-12.25646192 0-21.10444628 3.05708731-26.55098174 9.18531826-5.44653545 6.12823096-8.1733166 13.61985205-8.1733166 22.4678373 0 9.52967989 2.72678203 17.18996836 8.1733166 22.98086543 5.44653545 5.78386934 14.29451982 8.67931787 26.55098174 8.67931787h245.09409345z" p-id="4438"></path></svg>