<?xml version="1.0" standalone="no"?><!DOCTYPE svg PUBLIC "-//W3C//DTD SVG 1.1//EN" "http://www.w3.org/Graphics/SVG/1.1/DTD/svg11.dtd"><svg t="1551941722913" class="icon" style="" viewBox="0 0 1024 1024" version="1.1" xmlns="http://www.w3.org/2000/svg" p-id="1740" xmlns:xlink="http://www.w3.org/1999/xlink" width="128" height="128"><defs><style type="text/css"></style></defs><path d="M677.676657 294.6142c19.165116 57.5433 44.715939 102.2992 89.431879 147.0551 38.322239-38.3622 63.87306301-89.5118 83.03817801-147.0551h-172.47005701z m-421.56861 319.685h166.076358l-83.03817899-223.7795-83.03817901 223.7795z" p-id="1741"></path><path d="M894.854661 0.504H128.353929C58.09515801 0.504 0.607803 58.0473 0.607803 128.378v767.244c0 70.3307 57.487355 127.874 127.746126 127.874h766.50073299c70.258771 0 127.74612601-57.5433 127.74612601-127.874V128.378c0-70.3307-51.101647-127.874-127.74612601-127.874zM581.86706201 825.2913c-12.771416 12.7874-25.550824 12.7874-38.32223901 12.7874-6.3937 0-19.165116 0-25.550824-6.3937-6.3937-6.3937-12.779408 0-12.779408-6.3937s-6.385708-12.7874-12.771415-25.5748c-6.3937-12.7874-6.3937-19.1811-12.779408-31.96850001l-25.542832-70.33069999H230.557224L205.0064 767.74799999c-12.771416 25.5748-19.165116 44.7559-25.550824 57.54330001-6.3937 12.7874-19.165116 12.7874-38.32223901 12.7874-12.779408 0-25.550824-6.3937-38.33023098-12.7874-12.771416-12.7874-19.157124-19.1811-19.157124-31.9685 0-6.3937 0-12.7874 6.385708-25.57480001 6.3937-12.7874 6.3937-19.1811 12.771416-31.96849999l140.52553299-358.0472c6.3937-12.7874 6.3937-25.5748 12.779408-38.3622 6.385708-12.7874 12.771416-25.5748 19.157124-31.9685 6.3937-6.3937 12.779408-19.1811 25.55082301-25.5748 12.779408-6.3937 25.550824-6.3937 38.330232-6.3937 12.771416 0 25.542832 0 38.32223899 6.3937 12.771416 6.3937 19.165116 12.7874 25.55082399 25.5748 6.385708 6.3937 12.771416 19.1811 19.15712401 31.9685 6.3937 12.7874 12.779408 25.5748 19.165115 44.7559l140.52553401 351.6535c12.771416 25.5748 19.165116 44.7559 19.16511598 57.5433-6.3937 6.3937-12.779408 19.1811-19.165116 31.9685zM933.176901 575.937c-70.258771-25.5748-121.36041799-57.5433-166.076358-95.9055-44.707947 44.7559-102.19530199 76.7244-172.46206499 95.9055l-19.157124-31.9685c70.258771-19.1811 127.74612601-44.7559 172.46206599-89.5118C703.22748 409.7008 664.90524099 352.1575 652.125833 288.2205h-63.87306301v-25.5748h172.47005801c-12.7874-19.1811-25.55881601-44.7559-38.330232-63.937l19.157124-6.3937c12.779408 19.1811 31.944524 44.7559 44.715939 70.3307h159.682658v31.9685h-63.87306301c-19.157124 63.937-51.093655 121.4803-89.423887 159.8425 44.715939 38.3622 95.80959401 70.3307 166.07635801 89.5118l-25.550824 31.9685z" p-id="1742"></path></svg>