<?xml version="1.0" standalone="no"?><!DOCTYPE svg PUBLIC "-//W3C//DTD SVG 1.1//EN" "http://www.w3.org/Graphics/SVG/1.1/DTD/svg11.dtd"><svg t="1551939601310" class="icon" style="" viewBox="0 0 1025 1024" version="1.1" xmlns="http://www.w3.org/2000/svg" p-id="8006" xmlns:xlink="http://www.w3.org/1999/xlink" width="128.125" height="128"><defs><style type="text/css"></style></defs><path d="M333.06186 733.061768c-58.347896 52.210106-97.040127 49.051159-136.467091 9.492188l-45.156456-48.462758c-39.427988-39.541575-39.427988-103.667058 0-143.226029l193.260585-193.848986c39.426965-39.558971 103.355973-39.558971 142.78396 0l35.679617 35.794228c30.457686 30.555923 37.398772 75.762521 20.801768 112.997564l86.286202 66.040089c59.149145-59.33027 59.149145-155.517983 0-214.830857L523.162476 249.600755c-59.133795-59.33027-155.010423-59.33027-214.160591 0L44.350342 515.071965c-59.133795 59.313897-59.133795 155.50161 0 214.830857l107.08797 107.415428c59.133795 59.313897 155.026796 59.313897 214.176964 0l102.161774-105.647155-72.980151-70.034053L333.06186 733.061768zM987.196021 285.394982 880.1234 177.979554c-59.149145-59.33027-155.026796-59.33027-214.176964 0 0 0 4.223185-1.064238-57.988716 61.343113l71.113641 68.167542 31.604812-34.877345c39.427988-39.541575 103.356996-39.541575 142.78396 0l35.69599 35.8106c39.427988 39.541575 39.427988 103.667058 0 143.226029L714.818517 632.847345c-39.427988 39.541575-103.340623 39.541575-142.768611 0l-29.395494-48.462758c-61.883419-46.25344-42.865273-57.317427-37.611619-88.544639L426.548044 418.130076c-59.150168 59.33027-59.150168 155.517983 0 214.830857l107.072621 107.432825c59.149145 59.312874 155.026796 59.312874 214.176964 0l239.398392-240.166895C1071.582967 402.924769 987.196021 285.394982 987.196021 285.394982z" p-id="8007"></path></svg>