<?xml version="1.0" standalone="no"?><!DOCTYPE svg PUBLIC "-//W3C//DTD SVG 1.1//EN" "http://www.w3.org/Graphics/SVG/1.1/DTD/svg11.dtd"><svg t="1551939496605" class="icon" style="" viewBox="0 0 1024 1024" version="1.1" xmlns="http://www.w3.org/2000/svg" p-id="4635" xmlns:xlink="http://www.w3.org/1999/xlink" width="128" height="128"><defs><style type="text/css"></style></defs><path d="M903.50632812 411.16215869h-56.06204237V339.88959424C847.44428574 186.99822177 696.93240958 63.05387012 511.24751474 63.05387012 325.56963974 63.05387012 175.0577627 186.99822177 175.0577627 339.88959424v71.27256445H118.99572031c-30.94046367 0-56.06204151 20.63633467-56.0620415 46.16502451v457.15797862c0 25.52868984 25.05840645 46.16502451 56.0620415 46.16502451H903.50632812c30.93344385 0 56.06204151-20.63633467 56.06204151-46.16502451v-457.15797862c-0.05615332-25.5216709-25.12859766-46.16502451-56.0620415-46.16502451z m-168.12997206 0H287.11867344V339.88959424c0-101.94629941 100.38102627-184.56884825 224.1288413-184.56884737 123.74781504 0 224.13586026 82.66466338 224.13586026 184.56884737v71.2655455z" p-id="4636"></path></svg>