<?xml version="1.0" standalone="no"?><!DOCTYPE svg PUBLIC "-//W3C//DTD SVG 1.1//EN" "http://www.w3.org/Graphics/SVG/1.1/DTD/svg11.dtd"><svg t="1551939749156" class="icon" style="" viewBox="0 0 1024 1024" version="1.1" xmlns="http://www.w3.org/2000/svg" p-id="9350" xmlns:xlink="http://www.w3.org/1999/xlink" width="128" height="128"><defs><style type="text/css"></style></defs><path d="M948.13070222 147.91111111L75.86929778 147.91111111C35.28021333 147.91111111 2.27555555 180.87025778 2.27555555 221.42976l0 581.06083555C2.27555555 843.07740445 35.28021333 876.08888889 75.86929778 876.08888889l872.26140444 0C988.71978667 876.08888889 1021.72444445 843.07740445 1021.72444445 802.48832L1021.72444445 221.42976C1021.72444445 180.87025778 988.71978667 147.91111111 948.13070222 147.91111111zM575.76789333 730.45333333l-127.54033778 0 0-218.45333333-95.66435555 122.60238222L256.93980445 512l0 218.45333333L129.40856889 730.45333333 129.40856889 293.54666667l127.53123556 0 95.62339555 154.69226666 95.66435555-154.69226666 127.54033778 0L575.76789333 730.45333333 575.76789333 730.45333333zM766.13404445 730.45333333l-158.45831112-218.45333333 95.57333334 0 0-218.45333333 127.52896 0 0 218.45333333 95.63477333 0-160.31971555 218.45333333L766.13404445 730.45333333z" p-id="9351"></path></svg>