<?xml version="1.0" standalone="no"?><!DOCTYPE svg PUBLIC "-//W3C//DTD SVG 1.1//EN" "http://www.w3.org/Graphics/SVG/1.1/DTD/svg11.dtd"><svg t="1551939999707" class="icon" style="" viewBox="0 0 1024 1024" version="1.1" xmlns="http://www.w3.org/2000/svg" p-id="2084" xmlns:xlink="http://www.w3.org/1999/xlink" width="128" height="128"><defs><style type="text/css"></style></defs><path d="M866.26860587 783.44738667L679.88934507 783.44738667c-62.68637333 60.78384213-158.87060693 169.834992-158.87060694 169.834992-5.8298432 6.06997973-15.31193493 6.06997973-21.12431466 0 0 0-131.40452267-136.01731413-163.14829974-169.834992l-182.09938453 0c-67.522928 0-122.2367904-63.10552-122.2367904-131.5715264L32.4099488 187.0012256c0-68.4660064 53.5153664-123.98214187 119.50688213-123.98214187l717.05985174 0c66.0057056 0 119.50688213 55.51613547 119.50688213 123.98214187l0 464.87463467C988.48574933 720.33095253 933.77079467 783.44738667 866.26860587 783.44738667L866.26860587 783.44738667 866.26860587 783.44738667zM271.43135467 371.8501664c-32.99575787 0-59.75562453 27.75861333-59.75562454 61.9954368 0 34.22809173 26.75986667 61.98670507 59.75562454 61.98670507 32.99466667 0 59.75125867-27.75861333 59.75125866-61.98670507C331.18261333 399.60877973 304.42602133 371.8501664 271.43135467 371.8501664L271.43135467 371.8501664 271.43135467 371.8501664zM510.45057813 371.8501664c-32.99684907 0-59.75671573 27.75861333-59.75671573 61.9954368 0 34.22809173 26.77623893 61.98670507 59.75671573 61.98670507 32.99575787 0 59.75125867-27.75861333 59.75125867-61.98670507C570.20183573 399.60877973 543.446336 371.8501664 510.45057813 371.8501664L510.45057813 371.8501664 510.45057813 371.8501664zM749.46652587 371.8501664c-32.97611093 0-59.75125867 27.75861333-59.75125867 61.9954368 0 34.22809173 26.77514773 61.98670507 59.75125867 61.98670507 33.01540587 0 59.75562453-27.75861333 59.75562453-61.98670507C809.2221504 399.60877973 782.48193173 371.8501664 749.46652587 371.8501664L749.46652587 371.8501664 749.46652587 371.8501664zM749.46652587 371.8501664" p-id="2085"></path></svg>