<?xml version="1.0" standalone="no"?><!DOCTYPE svg PUBLIC "-//W3C//DTD SVG 1.1//EN" "http://www.w3.org/Graphics/SVG/1.1/DTD/svg11.dtd"><svg t="1554258219582" class="icon" style="" viewBox="0 0 1024 1024" version="1.1" xmlns="http://www.w3.org/2000/svg" p-id="4015" xmlns:xlink="http://www.w3.org/1999/xlink" width="128" height="128"><defs><style type="text/css"></style></defs><path d="M1009.82153813 497.29641067l-174.34256426-189.04615467c-12.60307733-12.60307733-29.40717973-2.10051307-29.40717867 18.90461547V448.98461547H596.02051307c-12.60307733 0-21.00512853-8.4020512-21.00512854-21.00512854V217.9282048h123.930256c21.00512853 0 31.5076928-18.90461547 18.90461547-29.40717867l-189.0461536-174.34256426c-8.4020512-6.30153813-21.00512853-6.30153813-29.40717973 0l-189.0461536 174.34256426c-12.60307733 12.60307733-2.10051307 29.40717973 18.90461546 29.40717867H448.98461547v210.05128213c0 12.60307733-8.4020512 21.00512853-21.00512854 21.00512854H217.9282048v-123.930256c0-21.00512853-18.90461547-31.5076928-29.40717867-18.90461547l-174.34256426 189.0461536c-6.30153813 8.4020512-6.30153813 21.00512853 0 29.40717973l174.34256426 189.0461536c12.60307733 12.60307733 29.40717973 2.10051307 29.40717867-18.90461546V575.01538453h210.05128213c12.60307733 0 21.00512853 8.4020512 21.00512854 21.00512854v210.05128213h-123.930256c-21.00512853 0-31.5076928 18.90461547-18.90461547 29.40717867l189.0461536 174.34256426c8.4020512 6.30153813 21.00512853 6.30153813 29.40717973 0l189.0461536-174.34256426c12.60307733-12.60307733 2.10051307-29.40717973-18.90461546-29.40717867H575.01538453V596.02051307c0-12.60307733 8.4020512-21.00512853 21.00512854-21.00512854h210.05128213v123.930256c0 21.00512853 18.90461547 31.5076928 29.40717867 18.90461547l174.34256426-189.0461536c8.4020512-10.50256427 8.4020512-23.10564053 0-31.50769173z" p-id="4016"></path></svg>