<?xml version="1.0" standalone="no"?><!DOCTYPE svg PUBLIC "-//W3C//DTD SVG 1.1//EN" "http://www.w3.org/Graphics/SVG/1.1/DTD/svg11.dtd"><svg t="1551939595814" class="icon" style="" viewBox="0 0 1024 1024" version="1.1" xmlns="http://www.w3.org/2000/svg" p-id="7800" xmlns:xlink="http://www.w3.org/1999/xlink" width="128" height="128"><defs><style type="text/css"></style></defs><path d="M527.675065 1023.999212c-282.30870599 0-511.99960601-229.6909-511.999606-511.99960601S245.366359 0 527.675065 0a39.384585 39.384585 0 0 1 0 78.76917001 433.703051 433.703051 0 0 0-433.230436 433.230436c0 238.828124 194.323543 433.230436 433.230436 433.230436 113.74268199 0 221.341368-43.874428 302.78869-123.35252002a435.908588 435.908588 0 0 0 101.69099899-154.30880499 39.384585 39.384585 0 1 1 73.57040501 28.199363 514.835296 514.835296 0 0 1-120.12298501 182.42939799A509.636531 509.636531 0 0 1 527.675065 1023.999212z" p-id="7801"></path><path d="M317.046304 276.873633a39.384585 39.384585 0 0 0-39.384585 39.38458499v393.76708201a39.384585 39.384585 0 0 0 78.76917 0V316.25821801a39.384585 39.384585 0 0 0-39.384585-39.38458501zM706.953696 274.589327a39.384585 39.384585 0 0 0-39.384585 39.384585v393.76708199a39.384585 39.384585 0 0 0 78.76917 2e-8V313.973912a39.384585 39.384585 0 0 0-39.384585-39.384585z" p-id="7802"></path><path d="M289.240787 290.343161a39.384585 39.384585 0 0 0 0 55.689804l389.82862301 389.828623a39.384585 39.384585 0 0 0 55.68980299-55.689804L344.93058999 290.343161a39.384585 39.384585 0 0 0-55.68980299 0z" p-id="7803"></path></svg>