<?xml version="1.0" standalone="no"?><!DOCTYPE svg PUBLIC "-//W3C//DTD SVG 1.1//EN" "http://www.w3.org/Graphics/SVG/1.1/DTD/svg11.dtd"><svg t="1551939743227" class="icon" style="" viewBox="0 0 1025 1024" version="1.1" xmlns="http://www.w3.org/2000/svg" p-id="9146" xmlns:xlink="http://www.w3.org/1999/xlink" width="128.125" height="128"><defs><style type="text/css"></style></defs><path d="M1007.998976 6.350848q18.855936 13.713408 15.427584 36.569088l-146.276352 877.658112q-2.85696 16.570368-18.284544 25.71264-7.999488 4.571136-17.713152 4.571136-6.285312 0-13.713408-2.85696l-258.840576-105.70752-138.276864 168.56064q-10.285056 13.142016-27.998208 13.142016-7.428096 0-12.570624-2.285568-10.856448-3.999744-17.427456-13.427712t-6.571008-20.855808l0-199.415808 493.682688-605.104128-610.818048 528.5376-225.69984-92.565504q-21.141504-7.999488-22.85568-31.42656-1.142784-22.85568 18.284544-33.712128l950.796288-548.53632q8.57088-5.142528 18.284544-5.142528 11.42784 0 20.570112 6.285312z" p-id="9147"></path></svg>