<?xml version="1.0" standalone="no"?><!DOCTYPE svg PUBLIC "-//W3C//DTD SVG 1.1//EN" "http://www.w3.org/Graphics/SVG/1.1/DTD/svg11.dtd"><svg t="1551939503011" class="icon" style="" viewBox="0 0 1024 1024" version="1.1" xmlns="http://www.w3.org/2000/svg" p-id="4793" xmlns:xlink="http://www.w3.org/1999/xlink" width="128" height="128"><defs><style type="text/css"></style></defs><path d="M846.7559375 291.9753125H648.0415625V93.26l198.714375 198.7153125z m-223.3425 24.628125V93.26l-446.716875-0.050625v390.8971875h670.059375v-167.503125H623.4134375z m-314.84625 338.034375c-4.753125-2.8725-10.26-4.8121875-16.509375-5.8134375-6.253125-0.9975-12.7528125-1.5-19.509375-1.5h-45.7696875v80.2884375h45.770625c6.755625 0 13.25625-0.49875 19.509375-1.5 6.2484375-0.9984375 11.75625-2.9371875 16.5084375-5.814375 4.7475-2.8715625 8.563125-6.943125 11.445-12.1940625 2.8734375-5.251875 4.3125-12.1284375 4.3125-20.6353125 0-8.503125-1.4390625-15.3825-4.3125-20.634375-2.881875-5.2528125-6.6975-9.31875-11.445-12.196875zM65.58125 539.9421875v390.8475h892.835625V539.9421875H65.5821875z m310.7071875 179.2303125c-3.375 10.3790625-8.7590625 19.5740625-16.1334375 27.5746875-7.381875 8.008125-16.948125 14.445-28.7034375 19.321875-11.76 4.880625-26.0128125 7.3190625-42.7696875 7.3190625h-61.90875v96.046875h-58.9040625V601.5471875h120.8128125c16.756875 0 31.0096875 2.4375 42.76875 7.314375 11.7571875 4.8815625 21.3234375 11.32125 28.704375 19.3265625 7.374375 8.004375 12.75375 17.1346875 16.134375 27.38625 3.375 10.2590625 5.0634375 20.885625 5.0634375 31.891875 0 10.7596875-1.6875 21.33-5.064375 31.7053125zM636.59375 788.0159375c-5.0090625 16.509375-12.57 30.766875-22.69875 42.7753125-10.1315625 12.0028125-22.7653125 21.4490625-37.8965625 28.3246875-15.136875 6.8840625-32.9578125 10.3190625-53.465625 10.3190625h-115.55625V601.548125h115.55625c17.259375 0 33.33 2.7571875 48.21375 8.2575 14.8809375 5.5021875 27.766875 13.7540625 38.64375 24.76125 10.8825 11.01 19.381875 24.7603125 25.5159375 41.26875 6.1265625 16.509375 9.1903125 35.895 9.1903125 58.1578125 0 19.509375-2.503125 37.51875-7.5028125 54.0225z m230.026875-136.940625h-129.440625v61.903125h112.18125v45.7771875h-112.18125v110.679375h-58.903125V601.548125h188.34375v49.5271875h-0.0009375z m-298.3125 24.0103125c-6.001875-7.749375-13.9471875-13.69125-23.82375-17.821875-9.885-4.126875-22.0790625-6.189375-36.5803125-6.189375h-42.0234375v168.8325h52.5271875c8.503125 0 16.755-1.3715625 24.7640625-4.1259375 8.0015625-2.74875 15.13125-7.314375 21.38625-13.6959375 6.2484375-6.375 11.2565625-14.6878125 15.0065625-24.946875 3.7528125-10.25625 5.6278125-22.7578125 5.6278125-37.5196875 0-13.5075-1.3125-25.7025-3.939375-36.5803125-2.625-10.8815625-6.943125-20.195625-12.945-27.9525z m0 0" p-id="4794"></path></svg>