<?xml version="1.0" standalone="no"?><!DOCTYPE svg PUBLIC "-//W3C//DTD SVG 1.1//EN" "http://www.w3.org/Graphics/SVG/1.1/DTD/svg11.dtd"><svg t="1551939728420" class="icon" style="" viewBox="0 0 1024 1024" version="1.1" xmlns="http://www.w3.org/2000/svg" p-id="8618" xmlns:xlink="http://www.w3.org/1999/xlink" width="128" height="128"><defs><style type="text/css"></style></defs><path d="M968.29604807 450.23718841H484.17375841l-10.79491352 20.53264323h471.55247122c45.42010783 0 82.25665909 30.65833031 82.25665908 68.46477497v16.04203681c0 37.79674573-36.8462502 68.46477498-82.25665908 68.46477497h-551.96633286l-10.79491352 20.52294431h586.12597834A86.84425487 86.84425487 0 0 0 1055.14030291 557.42980676v-20.34836349a86.84425487 86.84425487 0 0 0-86.84425484-86.84425486zM232.89377684 623.74141839l-10.79491353 20.52294431h139.51916533l10.78521457-20.52294431zM452.82680379 470.76983164l10.79491351-20.53264323H324.102552l-10.79491354 20.53264323zM79.99008262 644.2643627h121.55673958l10.7852146-20.52294431H103.37421245c-6.63407085 0-13.0450662-0.72742005-19.22328715-1.95918465l-11.6193229 22.10387053c2.46352924 0.2036776 4.94645633 0.37825843 7.45848022 0.37825843zM21.10785444 555.27664342v-16.04203681c0-37.80644466 36.82685233-68.46477498 82.26635801-68.46477497h39.61044638l10.79491352-20.53264323h-73.78948973a86.84425487 86.84425487 0 0 0-86.84425484 86.84425486v20.34836349c0 38.85392953 25.53729317 71.73331572 60.73472457 82.82889621l12.55042058-23.86907654c-26.85634819-11.27016128-45.32311849-34.37302204-45.32311849-61.11298301zM292.75559735 470.76983164l10.79491354-20.53264323H174.33161346l-10.79491353 20.53264323z" p-id="8619"></path><path d="M638.24132469 470.76983164H473.37884489L392.96498325 623.73171947h164.86247981zM102.09395316 470.76983164c-45.43950571 0-82.26635804 30.65833031-82.26635801 68.45507604v16.04203681c0 27.0891226 18.95171699 50.4344567 46.38030229 61.53973611l76.77676139-146.03684896h-40.89070567zM163.53669993 470.76983164l-79.51186077 151.25487543c5.81936039 1.07658167 11.85209733 1.70701238 18.069114 1.7070124h110.24778257l80.42356057-152.96188783H163.53669993zM313.30763846 470.76983164L232.89377684 623.73171947h139.5191653l80.41386165-152.96188783z" p-id="8620"></path></svg>