<?xml version="1.0" standalone="no"?><!DOCTYPE svg PUBLIC "-//W3C//DTD SVG 1.1//EN" "http://www.w3.org/Graphics/SVG/1.1/DTD/svg11.dtd"><svg t="1554258974104" class="icon" style="" viewBox="0 0 1024 1024" version="1.1" xmlns="http://www.w3.org/2000/svg" p-id="1793" xmlns:xlink="http://www.w3.org/1999/xlink" width="128" height="128"><defs><style type="text/css"></style></defs><path d="M512 1024C229.226146 1024 0 794.773854 0 512 0 229.226146 229.226146 0 512 0 794.773854 0 1024 229.226146 1024 512 1024 794.773854 794.773854 1024 512 1024ZM740.943089 482.861789C740.943089 482.861789 742.60813 468.209431 740.943089 449.560976 739.278049 430.91252 724.292683 399.609756 724.292683 399.609756 724.292683 399.609756 722.178081 337.653593 666.01626 258.081301 609.854439 178.509008 512 183.154472 512 183.154472 512 183.154472 414.145561 178.509008 357.98374 258.081301 301.821919 337.653593 299.707317 399.609756 299.707317 399.609756 299.707317 399.609756 284.721951 430.91252 283.056911 449.560976 281.39187 468.209431 283.056911 482.861789 283.056911 482.861789 283.056911 482.861789 189.223545 536.97561 191.479675 641.04065 193.735805 745.105691 233.105691 674.341463 233.105691 674.341463 233.105691 674.341463 248.998504 647.201301 258.081301 649.365854 267.164098 651.530407 270.727285 707.434146 316.357724 732.617886 322.659902 746.071415 316.357724 740.943089 316.357724 740.943089 316.357724 740.943089 265.940293 751.249691 266.406504 790.894309 266.872715 830.538927 339.576715 841.028683 382.95935 840.845528 426.341984 840.662374 457.003707 845.241236 512 807.544715 566.996293 845.241236 597.658016 840.662374 641.04065 840.845528 684.423285 841.028683 757.127285 830.538927 757.593496 790.894309 758.059707 751.249691 707.642276 740.943089 707.642276 740.943089 707.642276 740.943089 701.340098 746.071415 707.642276 732.617886 753.272715 707.434146 756.835902 651.530407 765.918699 649.365854 775.001496 647.201301 790.894309 674.341463 790.894309 674.341463 790.894309 674.341463 830.264195 745.105691 832.520325 641.04065 834.776455 536.97561 740.943089 482.861789 740.943089 482.861789Z" p-id="1794"></path></svg>