<?xml version="1.0" standalone="no"?><!DOCTYPE svg PUBLIC "-//W3C//DTD SVG 1.1//EN" "http://www.w3.org/Graphics/SVG/1.1/DTD/svg11.dtd"><svg t="1551939993461" class="icon" style="" viewBox="0 0 1024 1024" version="1.1" xmlns="http://www.w3.org/2000/svg" p-id="1880" xmlns:xlink="http://www.w3.org/1999/xlink" width="128" height="128"><defs><style type="text/css"></style></defs><path d="M453.4859104 468.31746063l0-273.06666667q0-8.50407573-5.46133333-14.04342827t-14.04342827-5.46133333-14.04342827 5.46133333-5.46133333 14.04342827l0 273.06666667q0 8.50407573 5.46133333 14.04342826t14.04342827 5.46133334 14.04342827-5.46133334 5.46133333-14.04342826zM863.0859104 682.86984143q0 15.83786667-11.5468192 27.46270506t-27.46270507 11.5468192l-261.51984746 0-31.0515808 294.36586667q-1.24830507 7.33379093-6.3975616 12.48304747t-12.48304747 5.1492576l-0.62415253 0q-16.4620192 0-19.5047616-16.4620192l-46.34331414-295.61417174-246.22811413 0q-15.83786667 0-27.46270507-11.5468192t-11.5468192-27.46270506q0-74.97630507 47.82567574-134.97295254t108.2124192-60.07466666l0-312.07619094q-31.67573333 0-54.84739094-23.1716576t-23.1716576-54.84739093 23.1716576-54.84739093 54.84739094-23.1716576l390.0952384 0q31.67573333 0 54.84739093 23.1716576t23.1716576 54.84739093-23.1716576 54.84739093-54.84739093 23.1716576l0 312.07619094q60.30872427 0 108.2124192 60.07466666t47.82567573 134.97295254z" p-id="1881"></path></svg>