<?xml version="1.0" standalone="no"?><!DOCTYPE svg PUBLIC "-//W3C//DTD SVG 1.1//EN" "http://www.w3.org/Graphics/SVG/1.1/DTD/svg11.dtd"><svg t="1551939733085" class="icon" style="" viewBox="0 0 1031 1024" version="1.1" xmlns="http://www.w3.org/2000/svg" p-id="8817" xmlns:xlink="http://www.w3.org/1999/xlink" width="128.875" height="128"><defs><style type="text/css"></style></defs><path d="M516.906704 538.837376c73.803296-44.920095 123.092528-126.121332 123.092528-218.836736 0-141.385154-114.615358-256.000512-256.000512-256.000512S127.999232 178.615486 127.999232 319.999616c0 92.715404 49.289232 173.917665 123.092528 218.836736C123.185706 593.937448 27.304291 726.272027 4.956877 887.390486c-5.326518 38.399667 24.656391 72.609386 63.423652 72.609386l631.238431 0c38.76726 0 68.750169-34.210743 63.423652-72.609386C740.695197 726.272027 644.813782 593.937448 516.906704 538.837376z" p-id="8818"></path><path d="M1012.502217 750.570041c-28.498201-98.752533-107.602417-178.870446-210.594047-216.07006 56.953397-40.613418 94.092598-107.21844 94.092598-182.500301 0-123.71201-100.288438-224.000448-224.000448-224.000448-10.332543 0-20.496137 0.714708-30.456992 2.069376 39.243391 53.124898 62.456032 118.813498 62.456032 189.931008 0 79.972514-29.352164 153.076461-77.850917 209.16668 93.564247 68.827989 163.257462 176.375113 191.737232 302.83332l133.029832 0C993.369963 832.00064 1024.272367 791.359576 1012.502217 750.570041z" p-id="8819"></path></svg>