<?xml version="1.0" standalone="no"?><!DOCTYPE svg PUBLIC "-//W3C//DTD SVG 1.1//EN" "http://www.w3.org/Graphics/SVG/1.1/DTD/svg11.dtd"><svg t="1551939574371" class="icon" style="" viewBox="0 0 1024 1024" version="1.1" xmlns="http://www.w3.org/2000/svg" p-id="6978" xmlns:xlink="http://www.w3.org/1999/xlink" width="128" height="128"><defs><style type="text/css"></style></defs><path d="M510.67131698 30.85243094c133.1650509 0 241.11029167 106.18337807 241.11029168 237.14941233 0 130.99385261-107.94391647 237.18252923-241.11029168 237.18252924-133.15975235 0-241.10366881-106.18867661-241.10366882-237.18252924C269.56632386 137.00533947 377.54733142 30.85243094 510.67131698 30.85243094L510.67131698 30.85243094 510.67131698 30.85243094 510.67131698 30.85243094z" p-id="6979"></path><path d="M406.03917377 569.68445451l211.92032815 0c181.39505745 0 328.42451356 119.94710445 328.42451356 298.38408757l0 20.81117849c0 70.31820561-147.06124867 104.26652418-328.42451356 104.26652418L406.03917377 993.14624475c-181.40035728 0-328.42451356-31.37838306-328.42451356-104.26652418l0-20.81117849C77.61730884 689.63155895 224.6401421 569.68445451 406.03917377 569.68445451L406.03917377 569.68445451 406.03917377 569.68445451 406.03917377 569.68445451z" p-id="6980"></path></svg>