<?xml version="1.0" standalone="no"?><!DOCTYPE svg PUBLIC "-//W3C//DTD SVG 1.1//EN" "http://www.w3.org/Graphics/SVG/1.1/DTD/svg11.dtd"><svg t="1554263339371" class="icon" style="" viewBox="0 0 1024 1024" version="1.1" xmlns="http://www.w3.org/2000/svg" p-id="1794" xmlns:xlink="http://www.w3.org/1999/xlink" width="128" height="128"><defs><style type="text/css"></style></defs><path d="M354.843 158.782c0 87.744-71.092 158.831-158.836 158.831-87.7 0-158.792-71.087-158.792-158.831C37.216 71.087 108.308 0 196.008 0c87.744 0 158.835 71.087 158.835 158.782zM569.23 79.415c0 43.867-35.548 79.415-79.42 79.415s-79.415-35.543-79.415-79.415C410.395 35.544 445.938 0 489.81 0c43.872 0 79.42 35.544 79.42 79.415z m230.25 19.819c0 43.872-35.543 79.415-79.42 79.415-43.872 0-79.415-35.543-79.415-79.415s35.543-79.415 79.415-79.415c43.876-0.001 79.42 35.543 79.42 79.415z m186.611 103.235c0 43.872-35.544 79.415-79.42 79.415-43.872 0-79.415-35.543-79.415-79.415s35.543-79.415 79.415-79.415c43.872 0 79.42 35.543 79.42 79.415zM284.312 406.937s50.614-139.944 244.159-163.763c0 0 298.785-20.844 350.239 273.74 25.127 143.945 14.656 455.737-216.247 503.189-55.738 11.446-217.365-2.79-196.521-148.682 7.353-51.596 55.738-135.568 0-208.425-38.709-50.615-232.249-65.501-181.63-256.059" p-id="1795"></path></svg>