<?xml version="1.0" standalone="no"?><!DOCTYPE svg PUBLIC "-//W3C//DTD SVG 1.1//EN" "http://www.w3.org/Graphics/SVG/1.1/DTD/svg11.dtd"><svg t="1551940317993" class="icon" style="" viewBox="0 0 1024 1024" version="1.1" xmlns="http://www.w3.org/2000/svg" p-id="1940" xmlns:xlink="http://www.w3.org/1999/xlink" width="128" height="128"><defs><style type="text/css"></style></defs><path d="M620.94482937 907.9196225c1.33490625 0.05999531 2.60981625 0.17998687 3.95222157 0.17998781h301.72625531c35.33001281-0.03749719 63.97049531-27.57555844 64.00049344-61.570665V173.73631719c-0.02999813-33.98760656-28.67048156-61.52566781-64.00049344-61.563165H624.89705094c-1.34240531 0-2.64731344 0.11999156-3.95222157 0.17998687V32.033795L32.033795 107.64347094v805.488285l588.91103437 77.55953906v-82.7716725z m1e-8-760.16147625c1.30490812-0.17998687 2.60981625-0.38997281 3.95222156-0.38997188h301.72625531c15.13393406 0 27.44056781 11.83416656 27.44056781 26.39814094v672.80012719c-0.02249812 14.56397437-12.29913375 26.37564281-27.44056781 26.39064187H624.89705094c-1.34240531 0-2.64731344-0.209985-3.95222157-0.38997187V147.75814625zM258.98281531 600.17129188l-140.397615-3.44975719V574.77058063l84.74403375-125.03869594v-1.10992219l-76.98957937 1.22991375v-33.82261875l131.27075719-3.29976749v24.47827593L172.24392219 562.69643001v1.07992405l86.73889312 1.31990719v35.08252969z m70.63752657 1.73237811l-43.66942594-1.07992405V412.03953875l43.66942593-1.07992406v190.94405532z m166.90074843-87.23385843c-16.25885531 14.41398469-40.14467344 20.69854219-67.6452375 20.51855532-5.26462969 0.02999813-10.51425937-0.29997844-15.72639281-0.98243063v69.7675875l-44.97433313-1.10992125V412.57950031c13.88902219-2.63981438 33.54513844-4.85215875 61.63066032-5.57210812 28.78297312-0.71994938 49.55651063 4.042215 63.5955225 14.34649031 13.55154562 9.79430999 22.73839875 26.24815219 22.73839875 45.83677219s-6.94451063 36.24494813-19.58862094 47.47915687h-0.02999719zM432.20561844 440.38004281c-6.41954813-0.07499438-12.82409719 0.62245594-19.05615844 2.06235469v57.61094344c3.92222345 0.86993906 8.75188406 1.13991937 15.4489125 1.13992031 24.75575719-0.02999813 40.19716969-12.10414781 40.19716969-32.35272281 0-18.18621938-13.28906437-28.82047031-36.55992564-28.4304975l-0.02999811-0.02999813z m298.83145875-277.97542781h71.72494969v28.46049656h-71.72494969v-28.46049656z m-71.75494781 42.59700094h71.72494968v28.49799375h-71.72494968v-28.49799375z m71.75494781 46.61671781h71.72494969v28.49049375h-71.72494969V251.61833375z m0 89.99366344h71.72494969v28.45299656h-71.72494969V341.61199719z m-71.75494781-45.71678062h71.72494968v28.46049562h-71.72494968v-28.46049562z m71.03499843 352.95514781c18.83867344 0 36.90490125-7.19949281 50.22396375-20.02359 13.3190625-12.80909813 20.79603563-30.19287375 20.78853657-48.31159875l-13.1090775-114.46444032c0-37.74484219-18.68868375-68.33518875-57.93342-68.33518875-39.23723719 0-57.89592375 30.59034656-57.89592375 68.33518875l-13.13907469 114.46444032c-0.00749906 18.12622406 7.46947406 35.50999969 20.79603562 48.32659781 13.32656156 12.82409719 31.40028937 20.01609094 50.24646188 20.00859094h0.02249812z m-23.51084438-125.61615563h47.0216897v95.56577156h-47.0216897V523.24920781z" p-id="1941"></path></svg>