<?xml version="1.0" standalone="no"?>
<!DOCTYPE svg PUBLIC "-//W3C//DTD SVG 1.1//EN" "http://www.w3.org/Graphics/SVG/1.1/DTD/svg11.dtd" >
<!--
2013-9-30: Created.
-->
<svg>
<metadata>
Created by iconfont
</metadata>
<defs>

<font id="element-icons" horiz-adv-x="1024" >
  <font-face
    font-family="element-icons"
    font-weight="500"
    font-stretch="normal"
    units-per-em="1024"
    ascent="896"
    descent="-128"
  />
    <missing-glyph />
    
    <glyph glyph-name="x" unicode="x" horiz-adv-x="1001"
d="M281 543q-27 -1 -53 -1h-83q-18 0 -36.5 -6t-32.5 -18.5t-23 -32t-9 -45.5v-76h912v41q0 16 -0.5 30t-0.5 18q0 13 -5 29t-17 29.5t-31.5 22.5t-49.5 9h-133v-97h-438v97zM955 310v-52q0 -23 0.5 -52t0.5 -58t-10.5 -47.5t-26 -30t-33 -16t-31.5 -4.5q-14 -1 -29.5 -0.5
t-29.5 0.5h-32l-45 128h-439l-44 -128h-29h-34q-20 0 -45 1q-25 0 -41 9.5t-25.5 23t-13.5 29.5t-4 30v167h911zM163 247q-12 0 -21 -8.5t-9 -21.5t9 -21.5t21 -8.5q13 0 22 8.5t9 21.5t-9 21.5t-22 8.5zM316 123q-8 -26 -14 -48q-5 -19 -10.5 -37t-7.5 -25t-3 -15t1 -14.5
t9.5 -10.5t21.5 -4h37h67h81h80h64h36q23 0 34 12t2 38q-5 13 -9.5 30.5t-9.5 34.5q-5 19 -11 39h-368zM336 498v228q0 11 2.5 23t10 21.5t20.5 15.5t34 6h188q31 0 51.5 -14.5t20.5 -52.5v-227h-327z" />
    

    
    <glyph glyph-name="pencil" unicode="&#59656;" d="M386.55283203 57.33251953000001l-282.95068359-80.27666016 80.27490234 282.95332032zM941.58476562 612.41982422l-68.13808593-68.13808594-202.67402344 202.67402344 68.13457031 68.13632812c0 0 32.47646484 32.42724609 65.48642578-0.58271484 33.01347656-33.01435547 97.18505859-97.18417969 133.33798829-133.33886719 36.15644531-36.15292969 3.85400391-68.75068359 3.8540039-68.75068359zM853.04638672 523.9333007800001l-446.32705078-446.32705078-202.62304688 202.62304688 446.32705078 446.32705078 202.62304688-202.62304688z"  horiz-adv-x="1024" />

    
    <glyph glyph-name="cube" unicode="&#59788;" d="M548.644571-34.88914299999999l365.714286 199.460571 0 363.446857-365.714286-133.12 0-429.714286zM512.073143 459.410286l398.848 145.115429-398.848 145.115429-398.848-145.115429zM987.501714 603.4285709999999l0-438.857143q0-19.968-10.313143-37.156571t-28.013714-26.843429l-402.285714-219.428571q-16.018286-9.142857-34.889143-9.142857t-34.889143 9.142857l-402.285714 219.428571q-17.700571 9.728-28.013714 26.843429t-10.313143 37.156571l0 438.857143q0 22.820571 13.165714 41.691429t34.889143 26.843429l402.285714 146.285714q12.580571 4.534857 25.161143 4.534857t25.161143-4.534857l402.285714-146.285714q21.723429-7.972571 34.889143-26.843429t13.165714-41.691429z"  horiz-adv-x="1024" />

    
    <glyph glyph-name="thumbtack" unicode="&#59716;" d="M457.143041 402.285714l0 256q0 7.972571-5.12 13.165714t-13.165714 5.12-13.165714-5.12-5.12-13.165714l0-256q0-7.972571 5.12-13.165714t13.165714-5.12 13.165714 5.12 5.12 13.165714zM841.143041 201.14285700000005q0-14.848-10.825143-25.746286t-25.746286-10.825143l-245.174857 0-29.110857-275.968q-1.170286-6.875429-5.997714-11.702857t-11.702857-4.827429l-0.585143 0q-15.433143 0-18.285714 15.433143l-43.446857 277.138286-230.838857 0q-14.848 0-25.746286 10.825143t-10.825143 25.746286q0 70.290286 44.836571 126.537143t101.449143 56.32l0 292.571429q-29.696 0-51.419429 21.723429t-21.723429 51.419429 21.723429 51.419429 51.419429 21.723429l365.714286 0q29.696 0 51.419429-21.723429t21.723429-51.419429-21.723429-51.419429-51.419429-21.723429l0-292.571429q56.539429 0 101.449143-56.32t44.836571-126.537143z"  horiz-adv-x="1024" />

    
    <glyph glyph-name="paperplane" unicode="&#59710;" d="M1007.998976 889.649152q18.855936-13.713408 15.427584-36.569088l-146.276352-877.658112q-2.85696-16.570368-18.284544-25.71264-7.999488-4.571136-17.713152-4.571136-6.285312 0-13.713408 2.85696l-258.840576 105.70752-138.276864-168.56064q-10.285056-13.142016-27.998208-13.142016-7.428096 0-12.570624 2.285568-10.856448 3.999744-17.427456 13.427712t-6.571008 20.855808l0 199.415808 493.682688 605.104128-610.818048-528.5376-225.69984 92.565504q-21.141504 7.999488-22.85568 31.42656-1.142784 22.85568 18.284544 33.712128l950.796288 548.53632q8.57088 5.142528 18.284544 5.142528 11.42784 0 20.570112-6.285312z"  horiz-adv-x="1025" />

    
    <glyph glyph-name="chart" unicode="&#59757;" d="M1024.562-0.21100000000001273L0-0.21100000000001273 0 768.211l64.035 0 0-704.387 960.527 0L1024.562-0.21100000000001273zM320.176 127.85900000000004l-128.07 0L192.106 384l128.07 0L320.176 127.85900000000004zM512.281 127.85900000000004L384.211 127.85900000000004 384.211 640.141 512.281 640.141 512.281 127.85900000000004zM704.386 127.85900000000004l-128.07 0L576.316 512.0699999999999l128.07 0L704.386 127.85900000000004zM896.492 127.85900000000004l-128.07 0L768.422 704.1759999999999l128.07 0L896.492 127.85900000000004z"  horiz-adv-x="1025" />

    
    <glyph glyph-name="excel" unicode="&#59813;" d="M895.969 559.985l0-575.953c0-26.497-21.498-47.995-47.998-47.995L176.028-63.962999999999965c-26.498 0-47.996 21.498-47.996 47.995L128.032 783.967c0 26.498 21.499 47.996 47.996 47.996L623.99 831.963c26.498 0 63.494-15.499 81.994-33.997l155.986-155.987C880.469 623.48 895.969 586.483 895.969 559.985zM831.973 511.989L623.99 511.989c-26.498 0-47.996 21.499-47.996 47.996L575.994 767.968 192.026 767.968l0-767.936 639.946 0L831.972 511.989zM639.99 575.9839999999999l187.984 0c-3 8.5-7.5 16.999-11 20.499L660.488 752.97c-3.5 3.5-12 7.999-20.498 10.999L639.99 575.9839999999999zM569.09 96l-56.717 88.062L455.656 96 319.833 96l125.375 192.54L319.833 480.333 454.91 480.333l57.463-88.061 56.717 88.061 135.076 0L580.285 288.53999999999996 704.166 96 569.09 96z"  horiz-adv-x="1024" />

    
    <glyph glyph-name="more" unicode="&#59677;" d="M142.07744 382.58496m-105.6864 0a51.6046875 51.6046875 0 1 1 211.3728 0 51.6046875 51.6046875 0 1 1-211.3728 0ZM511.98272 382.58496m-105.6864 0a51.6046875 51.6046875 0 1 1 211.3728 0 51.6046875 51.6046875 0 1 1-211.3728 0ZM881.888 382.58496m-105.6864 0a51.6046875 51.6046875 0 1 1 211.3728 0 51.6046875 51.6046875 0 1 1-211.3728 0Z"  horiz-adv-x="1024" />

    
    <glyph glyph-name="news" unicode="&#59819;" d="M844.126818 129.51807499999995L669.396261 129.51807499999995c-58.768475-56.984852-148.941194-159.220305-148.941194-159.220305-5.465478-5.690606-14.354939-5.690606-19.804045 0 0 0-123.19174 127.516232-152.951531 159.220305l-170.718173 0c-63.302745 0-114.596991 59.161425-114.596991 123.348306L62.384327 688.6863510000001c0 64.186881 50.170656 116.233258 112.037702 116.233258l672.243611 0c61.880349 0 112.037702-52.046377 112.037702-116.233258l0-435.81997C958.70539 188.68973200000005 907.41012 129.51807499999995 844.126818 129.51807499999995L844.126818 129.51807499999995 844.126818 129.51807499999995zM286.466895 515.3904689999999c-30.933523 0-56.020898-26.0237-56.020898-58.120722 0-32.088836 25.087375-58.112536 56.020898-58.112536 30.9325 0 56.016805 26.0237 56.016805 58.112536C342.4837 489.366769 317.399395 515.3904689999999 286.466895 515.3904689999999L286.466895 515.3904689999999 286.466895 515.3904689999999zM510.547417 515.3904689999999c-30.934546 0-56.021921-26.0237-56.021921-58.120722 0-32.088836 25.102724-58.112536 56.021921-58.112536 30.933523 0 56.016805 26.0237 56.016805 58.112536C566.564221 489.366769 541.48094 515.3904689999999 510.547417 515.3904689999999L510.547417 515.3904689999999 510.547417 515.3904689999999zM734.624868 515.3904689999999c-30.915104 0-56.016805-26.0237-56.016805-58.120722 0-32.088836 25.101701-58.112536 56.016805-58.112536 30.951943 0 56.020898 26.0237 56.020898 58.112536C790.645766 489.366769 765.576811 515.3904689999999 734.624868 515.3904689999999L734.624868 515.3904689999999 734.624868 515.3904689999999zM734.624868 515.3904689999999"  horiz-adv-x="1024" />

    
    <glyph glyph-name="users" unicode="&#59727;" d="M516.906704 357.16262400000005c73.803296 44.920095 123.092528 126.121332 123.092528 218.836736 0 141.385154-114.615358 256.000512-256.000512 256.000512S127.999232 717.384514 127.999232 576.0003839999999c0-92.715404 49.289232-173.917665 123.092528-218.836736C123.185706 302.062552 27.304291 169.72797300000002 4.956877 8.60951399999999c-5.326518-38.399667 24.656391-72.609386 63.423652-72.609386l631.238431 0c38.76726 0 68.750169 34.210743 63.423652 72.609386C740.695197 169.72797300000002 644.813782 302.062552 516.906704 357.16262400000005zM1012.502217 145.42995900000005c-28.498201 98.752533-107.602417 178.870446-210.594047 216.07006 56.953397 40.613418 94.092598 107.21844 94.092598 182.500301 0 123.71201-100.288438 224.000448-224.000448 224.000448-10.332543 0-20.496137-0.714708-30.456992-2.069376 39.243391-53.124898 62.456032-118.813498 62.456032-189.931008 0-79.972514-29.352164-153.076461-77.850917-209.16668 93.564247-68.827989 163.257462-176.375113 191.737232-302.83332l133.029832 0C993.369963 63.999360000000024 1024.272367 104.64042400000005 1012.502217 145.42995900000005z"  horiz-adv-x="1031" />

    
    <glyph glyph-name="link" unicode="&#59676;" d="M333.06186 162.93823199999997c-58.347896-52.210106-97.040127-49.051159-136.467091-9.492188l-45.156456 48.462758c-39.427988 39.541575-39.427988 103.667058 0 143.226029l193.260585 193.848986c39.426965 39.558971 103.355973 39.558971 142.78396 0l35.679617-35.794228c30.457686-30.555923 37.398772-75.762521 20.801768-112.997564l86.286202-66.040089c59.149145 59.33027 59.149145 155.517983 0 214.830857L523.162476 646.3992450000001c-59.133795 59.33027-155.010423 59.33027-214.160591 0L44.350342 380.928035c-59.133795-59.313897-59.133795-155.50161 0-214.830857l107.08797-107.415428c59.133795-59.313897 155.026796-59.313897 214.176964 0l102.161774 105.647155-72.980151 70.034053L333.06186 162.93823199999997zM987.196021 610.605018L880.1234 718.020446c-59.149145 59.33027-155.026796 59.33027-214.176964 0 0 0 4.223185 1.064238-57.988716-61.343113l71.113641-68.167542 31.604812 34.877345c39.427988 39.541575 103.356996 39.541575 142.78396 0l35.69599-35.8106c39.427988-39.541575 39.427988-103.667058 0-143.226029L714.818517 263.152655c-39.427988-39.541575-103.340623-39.541575-142.768611 0l-29.395494 48.462758c-61.883419 46.25344-42.865273 57.317427-37.611619 88.544639L426.548044 477.869924c-59.150168-59.33027-59.150168-155.517983 0-214.830857l107.072621-107.432825c59.149145-59.312874 155.026796-59.312874 214.176964 0l239.398392 240.166895C1071.582967 493.075231 987.196021 610.605018 987.196021 610.605018z"  horiz-adv-x="1025" />

    
    <glyph glyph-name="openEye" unicode="&#59660;" d="M502.054 712.3199999999999c69.605-0.133 132.349-14.482 192.58-40.424 68.932-29.689 129.792-71.797 185.902-121.183 47.445-41.758 90.322-87.848 129.929-137.026 13.577-16.859 12.714-30.815 2.157-46.452-29.091-43.085-62.349-82.697-98.383-120.04-48.923-50.701-103.14-94.712-164.84-129.088-52.59-29.3-108.311-49.788-168.13-58.164-74.098-10.375-146.114-1.624-216.238 24.098-74.147 27.196-139.002 69.687-198.604 120.729-57.139 48.933-107.566 104.215-153.463 163.708-12.511 16.217-12.712 25.623-0.805 42.445 53.434 75.496 117.087 140.989 191.974 195.392 49.495 35.958 102.841 64.598 161.175 83.529 45.676 14.823 92.546 22.319 136.749 22.473zM729.829 583.6469999999999c62.471-114.537 26.775-243.337-55.2-312.739-85.635-72.502-206.65-80.404-298.895-18.919-55.437 36.951-91.14 88.173-105.728 153.369-14.559 65.065-3.497 126.304 29.599 184.028-89.074-49.493-160.202-118.702-222.228-198.313 28.273-35.352 57.686-68.854 89.381-100.289 28.474-28.243 58.594-54.593 91.232-78.017 59.076-42.4 123.006-73.687 195.211-86.407 46.052-8.116 92.043-8.097 137.882 1.203 67.85 13.766 128.424 43.944 183.977 84.295 65.973 47.922 121.714 106.232 169.908 171.884 2.369 3.228 2.381 5.26-0.301 8.232-18.146 20.096-35.688 40.754-54.262 60.443-41.478 43.972-86.637 83.725-137.453 116.748-7.624 4.955-15.412 9.661-23.122 14.479zM338.953 449.713c1.141-3.841 1.933-9.901 4.648-14.923 4.954-9.165 17.306-12.925 29.093-10.007 11.171 2.767 17.454 11.352 19.1 23.42 1.913 14.034 3.599 28.346 7.818 41.773 16.275 51.814 52.514 80.178 105.998 86.948 15.556 1.969 26.188 13.654 25.942 29.385-0.226 14.399-9.358 23.32-23.712 22.702-5.562-0.239-11.118-1.18-16.623-2.113-32.155-5.451-61.785-16.983-87.005-38.054-42.629-35.615-59.669-83.495-65.258-139.132z"  horiz-adv-x="1024" />

    
    <glyph glyph-name="404" unicode="&#59751;" d="M931.6 310.4l0-79c28.6 60.2 44.8 127.4 44.8 198.4C976.4 685 769.4 892 514.2 892S52 685 52 429.8c0-3.2 0.2-6.4 0.2-9.6l166 206 96.4 0L171.8 410.4l46.4 0 0 54.8 99.2 154.6 0-209.4 0-100 0-82.4-99.2 0 0 82.4L67.6 310.4c43-161 170.6-287.4 332.4-328.6-10.4-26.2-40.6-89.4-90.8-100.6-62.2-14 168.8-3.4 333.6 104.6 126.6 36.6 230.8 125.8 287.4 242.2l-97.6 0 0 82.4-166.2 0 0 87.2 0 12.8L666.4 420l166.2 206.2 94 0-140.4-215.8 46.4 0 0 59 99.2 154 0-213.2L931.8 310.4zM366.2 288c-4.8 11.2-7.2 23.2-7.2 36L359 538.4c0 12.8 2.4 24.8 7.2 36 4.8 11.2 11.4 21 19.6 29.2 8.2 8.2 18 14.8 29.2 19.6 11.2 4.8 23.2 7.2 36 7.2l81.6 0c12.8 0 24.8-2.4 36-7.2 11-4.8 20.6-11.2 28.8-19.2l-88.6-129.4 0 23c0 4.8-1.6 8.8-4.8 12-3.2 3.2-7.2 4.8-12 4.8-4.8 0-8.8-1.6-12-4.8-3.2-3.2-4.8-7.2-4.8-12l0-72L372.6 276C370.2 279.79999999999995 368 283.79999999999995 366.2 288zM624.4 324c0-12.8-2.4-24.8-7.2-36-4.8-11.2-11.4-21-19.6-29.2-8.2-8.2-18-14.8-29.2-19.6-11.2-4.8-23.2-7.2-36-7.2l-81.6 0c-12.8 0-24.8 2.4-36 7.2-11.2 4.8-21 11.4-29.2 19.6-3.6 3.6-7 7.8-10 12l99.2 144.6 0-50.6c0-4.8 1.6-8.8 4.8-12 3.2-3.2 7.2-4.8 12-4.8 4.8 0 8.8 1.6 12 4.8 3.2 3.2 4.8 7.2 4.8 12l0 99.6 92.6 135.2c6.6-7.4 12-15.8 16-25.2 4.8-11.2 7.2-23.2 7.2-36L624.2 324z"  horiz-adv-x="1024" />

    
    <glyph glyph-name="clipboard" unicode="&#59798;" d="M447.71428584-1.7142858400000023l450 0 0 321.42857168-208.92857168 0q-20.08928584 0-34.15178584 14.0625t-14.0625 34.15178584l0 208.92857168-192.85714248 0 0-578.57142833z m128.57142832 723.21428584l0 32.14285752q0 6.52901748-4.77120498 11.30022334t-11.30022334 4.77120498l-353.57142832 0q-6.52901748 0-11.30022334-4.77120498t-4.77120498-11.30022334l0-32.14285752q0-6.52901748 4.77120498-11.30022334t11.30022334-4.77120498l353.57142832 0q6.52901748 0 11.30022334 4.77120498t4.77120498 11.30022334z m128.57142832-337.5l150.16741084 0-150.16741084 150.16741084 0-150.16741084z m257.14285752-64.28571416l0-337.5q0-20.08928584-14.0625-34.15178584t-34.15178584-14.0625l-482.14285752 0q-20.08928584 0-34.15178584 14.0625t-14.0625 34.15178584l0 80.35714248-273.21428583 0q-20.08928584 0-34.15178585 14.0625t-14.0625 34.15178584l0 675q0 20.08928584 14.0625 34.15178584t34.15178585 14.0625l546.42857167 0q20.08928584 0 34.15178584-14.0625t14.0625-34.15178584l0-164.73214248q10.546875-6.52901748 18.08035752-14.0625l204.91071416-204.91071416q14.0625-14.0625 24.10714248-38.16964248t10.04464248-44.19642832z"  horiz-adv-x="1024" />

    
    <glyph glyph-name="home" unicode="&#59700;" d="M863.08571413 325.48571413l0-292.57142826q0-15.8476192-11.58095253-27.42857174t-27.42857173-11.58095253l-234.0571424 0 0 234.0571424-156.03809494 0 0-234.0571424-234.0571424 0q-15.8476192 0-27.42857173 11.58095253t-11.58095253 27.42857174l0 292.57142826q0 0.60952427 3.0476192 1.82857174t3.0476192 1.82857173l350.47619093 288.91428587 350.47619093-288.91428587q0.60952427-1.21904747 0.60952427-3.6571424z m135.92380907 42.0571424l-37.79047573-45.1047616q-4.87619093-5.48571413-12.8-6.7047616l-1.82857174 0q-7.92380907 0-12.8 4.26666667l-421.79047573 351.6952384-421.79047573-351.6952384q-7.31428587-4.87619093-14.62857174-4.26666667-7.92380907 1.21904747-12.8 6.7047616l-37.79047573 45.1047616q-4.87619093 6.0952384-4.26666667 14.32380907t6.7047616 13.1047616l438.2476192 365.1047616q19.5047616 15.8476192 46.32380907 15.8476192t46.32380907-15.8476192l148.72380906-124.3428576 0 118.8571424q0 8.53333333 5.48571414 14.01904747t14.01904746 5.48571413l117.02857174 0q8.53333333 0 14.01904746-5.48571413t5.48571414-14.01904747l0-248.68571413 133.48571413-110.93333334q6.0952384-4.87619093 6.7047616-13.1047616t-4.26666667-14.32380906z"  horiz-adv-x="1024" />

    
    <glyph glyph-name="hot" unicode="&#59790;" d="M390.121162 401.771759c-17.272385 0-31.276331-14.003945-31.276331-31.275307l0-30.511921c0-17.272385 14.003945-31.275307 31.276331-31.275307s31.275307 14.003945 31.275307 31.275307l0 30.511921C421.396469 387.767813 407.393547 401.771759 390.121162 401.771759zM665.500023 339.98350700000003l0 30.511921c0 17.272385-14.003945 31.275307-31.275307 31.275307-17.272385 0-31.275307-14.003945-31.275307-31.275307l0-30.511921c0-17.272385 14.003945-31.275307 31.275307-31.275307C651.496078 308.707177 665.500023 322.71112200000005 665.500023 339.98350700000003zM423.458431 217.67999699999996c11.224646-18.071587 42.032302-48.65514 86.267782-48.65514 44.022633 0 75.206866 30.354332 86.695524 48.287773 9.229199 14.416338 5.0449 33.398668-9.254781 42.816155-14.294564 9.407254-33.622772 5.406127-43.218314-8.765641-0.132006-0.198521-13.632485-19.786649-34.223452-19.786649-20.020986 0-32.471552 18.131963-33.311687 19.394722-9.188266 14.452153-28.317952 18.84009-42.891879 9.778714C418.84639 251.63329699999997 414.340773 232.35011499999996 423.458431 217.67999699999996zM761.077845 665.003975c-21.171182 21.405519-41.212634 17.093307-48.822962 14.238282-7.329942-2.728134-24.571628-12.034081-26.383904-39.35431-1.358951-20.565385-7.141654-38.866193-18.111496-56.356542C628.379591 698.051649 517.16872 805.389306 479.601102 824.274422c-24.800849 12.472056-42.912345 5.736655-51.494815 0.610914-8.786107-5.238304-23.655769-18.371416-24.515347-47.488571-3.099594-105.489566-59.267848-209.960942-93.684706-269.320888-9.366322 17.669428-20.255323 37.20639-31.795147 54.660924-11.041474 16.696264-25.314549 19.211551-32.838919 19.221784-0.020466 0-0.035816 0-0.056282 0-9.42772 0-23.049972-3.634784-34.55398-20.906146C96.696296 389.951549 85.700871 231.57649500000002 178.856527 103.058446c6.118348-8.44023 15.668865-12.924357 25.350364-12.919241 6.362918 0 12.787234 1.934049 18.330484 5.950526 13.983479 10.139941 17.10354 29.697369 6.968715 43.680848-87.816045 121.143081-45.121664 256.538771 14.991436 357.655749 8.236592-14.71105 15.826454-29.448706 22.072715-41.573861 3.104711-6.022157 5.844102-11.341303 8.139378-15.638165 6.674003-12.511965 19.623943-20.346397 33.800827-20.438495 14.344706-0.340761 27.234271 7.574512 34.065863 20.005636 3.028986 5.507434 7.100722 12.431124 11.901051 20.6012 33.505092 57.018621 101.692077 173.070754 110.789269 298.555723 42.525536-33.912367 140.15611-141.239791 152.652725-233.743602 1.883907-13.927197 11.245112-25.507954 24.429389-30.222325 13.331633-4.754281 28.083615-1.690502 38.498826 8.017604 29.890774 27.834952 49.682539 57.817824 59.823504 90.879823 71.729671-88.772836 172.872233-283.050588 40.759309-453.280644-10.588149-13.647835-8.113795-33.291221 5.533017-43.884486 13.647835-10.577916 33.291221-8.118911 43.884486 5.533017C987.837382 304.522877 875.134531 549.613922 761.077845 665.003975zM720.374818 68.89536899999996c-65.804728-47.036269-130.87063-69.38323-204.758454-70.324672-75.659167-1.069355-157.534919 25.66145-213.325573 69.479421-13.58132 10.670014-33.246195 8.302083-43.915186-5.279237-10.670014-13.586436-8.3072-33.246195 5.279237-43.915186 65.351404-51.326992 160.003134-82.862219 248.103658-82.862219 1.552356 0 3.104711 0.010233 4.652973 0.025583 86.079494 1.099031 164.697039 27.92091 240.340857 81.992409 14.049994 10.04375 17.302061 29.575596 7.254218 43.630706C753.956657 75.69626200000005 734.418672 78.94935199999998 720.374818 68.89536899999996z"  horiz-adv-x="1024" />

    
    <glyph glyph-name="qq" unicode="&#59828;" d="M512.009337 896C229.23422 896 0 666.76578 0 384.009337c0-282.775117 229.23422-512.009337 512.009337-512.009337 282.775117 0 512.009337 229.23422 512.009337 512.009337C1024 666.76578 794.76578 896 512.009337 896zM801.26464 227.14029900000003c-21.737567-18.637536-49.955319 61.346999-54.007769 49.040249-9.879014-29.935842-14.529061-49.936644-43.643208-82.505644-1.550016-1.736764 33.670819-14.473036 43.643208-41.62632 9.542867-26.03279 28.143053-67.285613-93.486477-80.227308-71.375413-7.582004-122.936772 38.022067-128.09104 37.592545-9.524192-0.84037-5.284993 0-15.51883 0-8.366349 0-8.926595-0.616271-16.807397 0-2.166287 0.168074-25.883391-37.592545-131.975416-37.592545-82.225521 0-103.514891 51.748108-86.987617 80.227308 16.545949 28.460526 44.128755 36.752175 40.244378 41.252822-19.141758 22.185764-32.363577 45.921544-40.244378 67.360312-1.942188 5.341017-3.585578 10.532635-4.874145 15.51883-2.987982 11.447705-25.883391-67.229588-50.459541-49.040249-24.576149 18.170664-22.391188 64.40968-6.480185 108.687834 16.060402 44.614302 56.491529 87.585213 56.939726 97.072055 1.624715 35.295534-3.473529 41.159448 0 50.422191 7.750078 20.766473 17.19957 12.792297 17.19957 23.567706 0 135.729068 100.863057 245.761494 225.293819 245.761494 124.412088 0 225.275145-110.032426 225.275145-245.761494 0-5.210293 13.520617 0 19.982128-23.567706 1.325917-4.874145 2.259661-23.66108 0.672296-50.422191-0.746995-12.848321 34.268415-28.497875 52.364379-97.072055C828.436598 267.235278 810.321959 234.89037599999995 801.26464 227.14029900000003z"  horiz-adv-x="1025" />

    
    <glyph glyph-name="bug" unicode="&#59654;" d="M1022.06544 312.59880999999996c0-11.0558-4.034896-20.61962-12.111852-28.696576-8.077979-8.077979-17.639752-12.117992-28.690436-12.117992L838.446445 271.78424199999995c0-72.690556-14.235213-134.320195-42.718941-184.89915l132.615367-133.26312c8.076956-8.065699 12.117992-17.634636 12.117992-28.690436 0-11.050684-4.034896-20.614503-12.117992-28.691459-7.653307-8.065699-17.209964-12.106736-28.690436-12.106736-11.475356 0-21.040199 4.041036-28.690436 12.106736L744.717737 21.84681999999998c-2.124384-2.118244-5.308913-4.88424-9.558703-8.283664-4.259-3.3984-13.180184-9.463536-26.78504-18.171871-13.598716-8.715499-27.415396-16.473183-41.439808-23.276123-14.029528-6.797823-31.462572-12.966313-52.289923-18.49319-20.827351-5.517667-41.446971-8.28571-61.842487-8.28571L552.801776 516.6133199999999l-81.611739 0 0-571.277058c-21.668509 0-43.250036 2.874467-64.707744 8.615215-21.473057 5.734608-39.960107 12.749372-55.476499 21.039175-15.518438 8.289804-29.541827 16.572444-42.077328 24.867364-12.541641 8.290827-21.781072 15.193027-27.739784 20.714787l-9.558703 8.93244L154.95056-102.47976700000004c-8.500605-8.921183-18.699897-13.386892-30.606065-13.386892-10.201339 0-19.335371 3.40454-27.409257 10.202363-8.079002 7.652284-12.437264 17.10968-13.080923 28.372188-0.633427 11.263531 2.659573 21.143553 9.893324 29.647227l128.787178 144.727219c-24.650423 48.464805-36.980239 106.699114-36.980239 174.710091L42.738895 271.79242899999997c-11.057847 0-20.61655 4.041036-28.690436 12.111852-8.079002 8.082072-12.120039 17.640776-12.120039 28.696576 0 11.050684 4.041036 20.61962 12.120039 28.689413 8.073886 8.072863 17.632589 12.107759 28.690436 12.107759l142.81466 0L185.553555 540.843164l-110.302175 110.302175c-8.074909 8.077979-12.113899 17.640776-12.113899 28.691459 0 11.04966 4.044106 20.61962 12.113899 28.690436 8.071839 8.076956 17.638729 12.123109 28.691459 12.123109 11.056823 0 20.612457-4.052293 28.692482-12.123109l110.302175-110.302175 538.128077 0 110.303198 110.302175c8.070816 8.076956 17.632589 12.123109 28.690436 12.123109 11.050684 0 20.617573-4.052293 28.689413-12.123109 8.077979-8.070816 12.119015-17.640776 12.119015-28.690436 0-11.050684-4.041036-20.614503-12.119015-28.691459l-110.302175-110.302175 0-187.448206 142.815683 0c11.0558 0 20.618597-4.034896 28.690436-12.113899 8.076956-8.069793 12.117992-17.638729 12.117992-28.683273l0 0L1022.06544 312.59880999999996 1022.06544 312.59880999999996zM716.021162 679.841915L307.968605 679.841915c0 56.526411 19.871583 104.667851 59.616796 144.414087 39.733956 39.746236 87.88256 59.611679 144.411017 59.611679 56.529481 0 104.678084-19.865443 144.413064-59.611679C696.156742 784.51079 716.021162 736.368326 716.021162 679.841915L716.021162 679.841915 716.021162 679.841915 716.021162 679.841915z"  horiz-adv-x="1024" />

    
    <glyph glyph-name="markdown" unicode="&#59804;" d="M920.87253333 725.33333333L103.12746667 725.33333333C65.0752 725.33333333 34.13333333 694.43413333 34.13333333 656.4096l0-544.74453333C34.13333333 73.61493332999999 65.0752 42.66666667000004 103.12746667 42.66666667000004l817.74506666 0C958.9248 42.66666667000004 989.86666667 73.61493332999999 989.86666667 111.66719999999998L989.86666667 656.4096C989.86666667 694.43413333 958.9248 725.33333333 920.87253333 725.33333333zM571.7824 179.20000000000005l-119.56906667 0 0 204.8-89.68533333-114.93973333L272.88106667 384l0-204.8L153.32053333 179.20000000000005 153.32053333 588.8l119.56053334 0 89.64693333-145.024 89.68533333 145.024 119.56906667 0L571.7824 179.20000000000005 571.7824 179.20000000000005zM750.25066667 179.20000000000005l-148.55466667 204.8 89.6 0 0 204.8 119.5584 0 0-204.8 89.6576 0-150.29973333-204.8L750.25066667 179.20000000000005z"  horiz-adv-x="1024" />

    
    <glyph glyph-name="spinner" unicode="&#59801;" d="M546.462897 629.707034c-73.410207 0-133.15531 59.727448-133.15531101 133.137656C413.307586 836.23724101 473.05269 896 546.462897 896c73.410207 0 133.12-59.727448 133.12-133.15530999 0-73.410207-59.709793-133.137655-133.12-133.13765601z m-283.453794-105.736827c-67.054345 0-121.626483 54.554483-121.626482 121.644138s54.572138 121.64413801 121.626482 121.644138a121.767724 121.767724 0 0 0 121.608828-121.644138c0-67.054345-54.554483-121.644138-121.608828-121.644138zM142.54786201 248.814345A107.343448 107.343448 0 0 0 35.310345 356.104828a107.343448 107.343448 0 0 0 107.237517 107.237517 107.343448 107.343448 0 0 0 107.219862-107.237517 107.343448 107.343448 0 0 0-107.21986199-107.272828z m120.46124099-272.595862a91.047724 91.047724 0 0 0-90.94179301 90.959448 91.065379 91.065379 0 0 0 90.92413801 90.941793 91.065379 91.065379 0 0 0 90.941793-90.941793c0-50.14069-40.783448-90.95944799-90.924138-90.959448zM546.462897-128a79.518897 79.518897 0 0 0-79.448276 79.448276c0 43.820138 35.645793 79.448276 79.448276 79.448276a79.518897 79.518897 0 0 0 79.43062-79.448276c0-43.820138-35.628138-79.448276-79.448276-79.448276z m287.744 134.285241a64.194207 64.194207 0 0 0-64.123587 64.123587 64.194207 64.194207 0 0 0 64.123587 64.123586 64.194207 64.194207 0 0 0 64.123586-64.123586 64.194207 64.194207 0 0 0-64.123586-64.123587z m117.848275 296.695173a52.683034 52.683034 0 0 0-52.612413 52.61241399 52.683034 52.683034 0 0 0 52.612413 52.63006901 52.70069 52.70069 0 0 0 52.630069-52.612414 52.718345 52.718345 0 0 0-52.630069-52.630069z m-158.667034 338.69682699a40.818759 40.818759 0 1 1 81.655172-0.01765499 40.818759 40.818759 0 0 1-81.655172 0z"  horiz-adv-x="1024" />

    
    <glyph glyph-name="ravelry" unicode="&#59879;" d="M621.56587289-64.39285686999995q-3.21428531 0.53571469-5.89285688 2.14285687-6.96428531 4.28571469-19.28571468 12.32142844t-46.07142844 34.82142843-62.41071375 55.98214313-60 75T379.95872976 208.28571468999996q-9.10714313 1.60714311-93.75 19.82142842 35.35714313-114.10714313 125.89285781-193.92857155t209.46428532-98.57142845z m-343.39285688 324.64285687l90-15q-13.39285687 40.71428531-21.96428625 89.73214313T336.03015914 412.92857156l-2.14285782 28.39285688q-45-43.92857156-64.82142843-120 2.67857156-34.82142844 9.10714312-61.07142844z m58.92857156 326.25q-23.03571469-34.28571469-41.25-79.28571469 23.57142844 24.64285687 39.64285688 36.42857158z m769.82142844-232.5q0 86.25-33.21428625 164.46428531t-89.73214219 135T849.78015914 743.7321431299999 686.92301601 777.21428531q-78.75 0-150.53571469-28.125T407.81587289 669.53571469q-16.07142844-31.07142844-24.10714313-85.71428625 32.14285687 27.32142844 76.60714313 44.73214312t84.91071468 23.03571375 76.60714219 7.23214313 58.125-0.53571375l21.42857156-1.60714313q17.67857156-0.53571469 28.39285782-8.30357156t13.125-17.67857156 3.48214218-19.82142844-0.53571375-15.26785687q-67.5 5.89285687-121.875 0.26785687t-98.03571468-23.30357156T449.60158757 534.2678568700001 379.42301601 481.5q2.14285689-19.28571469 6.16071375-49.55357156t19.01785781-95.35714313 33.21428532-96.16071375q65.89285687-3.21428531 132.58928625 7.76785688T685.31587289 276.85714313000005t87.05357156 35.89285687 58.66071469 31.60714313l19.82142843 12.85714218q11.78571469 8.57142844 21.16071375 10.98214313t16.33928625-2.67857157 9.10714219-18.48214218q7.5-51.96428531-20.89285687-64.82142938-111.42857156-51.96428531-250.17857156-71.78571375-72.32142844-10.71428531-169.82142844-8.57142843 21.96428531-51.42857156 58.92857156-94.55357157t73.39285687-68.03571469 69.91071469-42.32142843T713.17301601-26.357143130000054l20.89285688-6.42857156q76.60714313-12.32142844 140.89285687 8.03571469 104.46428531 53.03571469 168.21428625 154.82142844t63.75 223.92857156z m39.64285688 19.82142844q-7.5-72.32142844-21.42857156-113.57142844-37.5-111.42857156-97.23214219-185.625T857.28015914-61.17857156000002q-25.71428531-17.67857156-43.92857157-23.57142844-38.57142844-13.92857156-87.32142843-8.57142844-19.28571469-1.60714311-39.10714313-1.60714312-151.60714313 0-270.26785687 92.67857156T258.35158757 234.53571468999996q-0.53571469 0-2.14285781 0.26785687t-2.67857062 0.26785688q-3.21428531-26.78571469 1.33928531-60.26785688t13.92857156-61.60714312 19.28571375-52.5T304.95872976 22.392856869999946l7.5-13.92857156q4.28571469-6.42857156 28.92857157-43.92857062-38.03571469 20.35714313-66.69642844 57.05357062t-42.05357157 75-21.16071375 73.39285782T202.10158757 227.57142843999998l-1.07142843 22.5q-2.67857156 1.07142844-17.94642938 6.69642843t-25.98214219 9.64285782-28.39285781 10.98214218-30.80357062 13.39285782-26.78571469 13.66071375-22.76785688 14.46428625T34.95872976 332.57142844q10.17857156-5.35714313 27.05357156-13.66071375t60.53571469-24.375 77.94642844-20.35714313l1.07142844 17.14285688q5.89285687 79.82142844 50.35714312 155.35714312 21.96428531 108.21428531 94.28571375 195.53571375 15 61.60714313 43.3928578 114.64285782 8.03571469 15 17.14285689 24.10714218t26.25 17.14285782q84.64285687 39.64285687 162.58928531 55.71428531t161.78571469 5.89285687 164.19642844-51.96428531q117.85714313-61.60714313 178.39285687-180t46.60714313-253.92857156z"  horiz-adv-x="1243" />

    
    <glyph glyph-name="closeEye" unicode="&#59683;" d="M515.069851 281.006495c-178.665334 0-345.255921 96.188668-434.895573 251.011492-13.098031 22.61457-5.321075 51.47117 17.191166 64.569202 22.61457 13.098031 51.573499 5.321075 64.569202-17.191166 72.755471-125.659239 208.033576-203.735785 353.032877-203.735785s280.277406 78.076546 353.032877 203.838113c13.098031 22.61457 41.954632 30.391526 64.569201 17.293495s30.289198-41.954632 17.293495-64.569202c-89.537324-155.027481-256.12791-251.216149-434.793245-251.216149zM270.095733 233.93544499999996c-8.288598 0-16.781853 2.148896-24.354152 6.753673-22.409913 13.507345-29.572899 42.568602-16.065554 64.876186l52.187469 86.365145c13.507345 22.409913 42.568602 29.470571 64.876186 16.065554 22.409913-13.507345 29.572899-42.568602 16.065554-64.876187l-52.187468-86.365144c-8.902568-14.632957-24.45648-22.819227-40.522035-22.819227zM757.48576 233.93544499999996c-15.963226 0-31.619466 8.083941-40.522035 22.819227l-52.187468 86.365144c-13.507345 22.409913-6.344359 51.368842 15.963225 64.876187 22.409913 13.507345 51.368842 6.344359 64.876187-15.963226l52.187469-86.365144c13.507345-22.409913 6.344359-51.368842-15.963226-64.876187-7.572299-4.604777-16.065554-6.856001-24.354152-6.856001zM515.069851 172.43609500000002c-26.093734 0-47.275707 21.181973-47.275707 47.275707V328.282202c0 26.093734 21.181973 47.275707 47.275707 47.275707 26.093734 0 47.275707-21.181973 47.275707-47.275707v-108.5704c0-26.093734-21.181973-47.275707-47.275707-47.275707z"  horiz-adv-x="1024" />

    
    <glyph glyph-name="i18n" unicode="&#59747;" d="M512 833.8875C263.54375 833.8875 62.140625 632.625 62.140625 384.365625c0-229.33125 171.84375-418.55625 393.890625-446.0625 12.515625-2.64375 27.759375-4.190625 45.928125-4.190625 5.090625 0 10.0125 0.28125 14.765625 0.759375 246.2625 2.53125 445.134375 202.78125 445.134375 449.49375C961.859375 632.625 760.45625 833.8875 512 833.8875zM441.06875-21.5625C247.484375 12.243749999999977 100.30625 181.02187500000002 100.30625 384.16875c0 29.109375 3.0375 57.54375 8.803125 84.9375 17.803125-19.0125 59.765625-18.5625 69.975 9.871875 18.309375-10.9125 42.91875-12.88125 42.91875-34.70625 0-71.971875 2.559375-149.146875 67.978125-150.328125 1.828125 0 36.45-13.134375 52.93125-55.85625 5.709375-14.79375 28.2375 0 52.959375 0 12.346875 0 0-20.8125 0-65.75625 0-44.775 96.553125-113.7375 96.553125-113.7375-0.45-29.64375 0.759375-53.60625 3.234375-72.759375-21.796875 0.421875-40.1625-2.475-54.5625-7.396875z m172.940625 6.4125c-2.1375 10.4625-11.503125 16.2-28.546875 11.7 13.6125 57.965625 20.221875 90.421875 48.65625 115.0875 41.0625 35.634375 4.865625 75.2625-26.409375 70.59375-24.665625-3.740625-9.084375 30.515625-31.078125 32.428125-22.021875 1.828125-50.7375 45.590625-82.40625 60.665625-16.790625 7.959375-33.3 29.334375-59.203125 30.290625-22.95 0.9-56.475-19.40625-56.475-3.740625 0 50.371875-5.11875 86.34375-6.159375 100.6875-0.84375 11.53125-7.5375 3.88125 23.484375 3.15 16.875-0.45 8.634375 33.91875 25.36875 35.240625 16.396875 1.29375 55.51875-15.35625 65.475-8.71875 9.28125 6.1875 68.0625-154.321875 68.0625-26.521875 0 15.159375-7.875 41.5125 0 55.884375 31.05 56.728125 60.103125 102.99375 57.515625 109.771875-1.490625 3.796875-31.78125 6.946875-56.025-1.18125-8.15625-2.75625 2.615625-15.553125-9.140625-18.28125-44.015625-10.18125-82.9125 11.86875-69.3 32.56875 13.95 21.20625 64.490625 9.253125 68.90625 51.834375 2.53125 24.384375 4.66875 52.621875 6.075 73.603125 59.259375-9.253125 52.734375 76.89375-35.353125 86.11875 178.2-2.08125 329.203125-117.16875 384.609375-276.890625a16.790625 16.790625 0 0 1-9.84375 4.5c-26.60625 66.515625-91.265625 18.365625-69.328125-40.303125-117.478125-90.3375-87.4125-153.3375-48.825-189.39375 20.334375-18.95625 39.684375-47.475 52.3125-67.95-13.725-40.021875 50.540625-24.01875 82.265625 43.903125a412.81875 412.81875 0 0 0-294.6375-285.046875z m275.0625 480.43125a386.634375 386.634375 0 0 0 8.465625-87.271875 440.971875 440.971875 0 0 1-8.775 65.7c0.39375 7.621875 0.50625 14.85 0.309375 21.571875z"  horiz-adv-x="1024" />

    
    <glyph glyph-name="book" unicode="&#59648;" d="M886.784 787.968h-238.592c-55.808 0-104.96-26.624-136.192-68.096-31.232 41.472-80.384 68.096-136.192 68.096H137.216c-37.376 0-68.096-30.72-68.096-68.096v-630.272c0-37.376 30.72-68.096 68.096-68.096h250.368c33.28-32.768 77.824-51.2 124.416-51.2 46.592 0 90.624 18.432 124.416 51.2h250.368c37.376 0 68.096 30.72 68.096 68.096V719.8720000000001c0 37.888-30.72 68.096-68.096 68.096z m20.992-684.032c0-17.92-14.848-32.768-32.768-32.768h-247.296c-10.752 0-20.48-4.608-27.136-12.8-22.528-26.624-54.784-41.472-88.576-41.472-33.792 0-66.048 15.36-88.576 41.472-6.656 8.192-16.896 12.8-27.136 12.8H148.992c-17.92 0-32.768 14.848-32.768 32.768V709.12c0 17.92 14.848 32.768 32.768 32.768h219.136c59.392 0 120.32-48.64 120.32-108.544v-613.376s11.776-2.56 24.064-2.56 24.064 2.56 24.064 2.56V632.832c0 59.904 60.416 108.544 120.32 108.544h219.136c17.92 0 32.768-14.848 32.768-32.768l-1.024-604.672zM174.592 238.08000000000004v-16.896c0-7.168 5.632-12.8 12.8-12.8H389.12c7.168 0 12.8 5.632 12.8 12.8v16.896c0 7.168-5.632 12.8-12.8 12.8H187.904c-7.168 0-13.312-5.632-13.312-12.8zM388.608 422.912H187.904c-7.168 0-12.8-5.632-12.8-12.8v-16.896c0-7.168 5.632-12.8 12.8-12.8h200.704c7.168 0 12.8 5.632 12.8 12.8v16.896c0 6.656-6.144 12.8-12.8 12.8zM390.144 594.944H187.904c-7.168 0-12.8-5.632-12.8-12.8v-16.896c0-7.168 5.632-12.8 12.8-12.8h202.752c7.168 0 12.8 5.632 12.8 12.8v16.896c-0.512 6.656-6.144 12.8-13.312 12.8zM614.912 238.08000000000004v-16.896c0-7.168 5.632-12.8 12.8-12.8H829.44c7.168 0 12.8 5.632 12.8 12.8v16.896c0 7.168-5.632 12.8-12.8 12.8h-201.728c-6.656 0-12.8-5.632-12.8-12.8zM828.928 422.912h-200.704c-7.168 0-12.8-5.632-12.8-12.8v-16.896c0-7.168 5.632-12.8 12.8-12.8h200.704c7.168 0 12.8 5.632 12.8 12.8v16.896c0 6.656-6.144 12.8-12.8 12.8zM830.464 594.944h-202.752c-7.168 0-12.8-5.632-12.8-12.8v-16.896c0-7.168 5.632-12.8 12.8-12.8h202.752c7.168 0 12.8 5.632 12.8 12.8v16.896c0 6.656-5.632 12.8-12.8 12.8z"  horiz-adv-x="1024" />

    
    <glyph glyph-name="progressbar" unicode="&#59762;" d="M968.29604807 445.76281159H484.17375841l-10.79491352-20.53264323h471.55247122c45.42010783 0 82.25665909-30.65833031 82.25665908-68.46477497v-16.04203681c0-37.79674573-36.8462502-68.46477498-82.25665908-68.46477497h-551.96633286l-10.79491352-20.52294431h586.12597834A86.84425487 86.84425487 0 0 1 1055.14030291 338.57019324v20.34836349a86.84425487 86.84425487 0 0 1-86.84425484 86.84425486zM232.89377684 272.25858160999996l-10.79491353-20.52294431h139.51916533l10.78521457 20.52294431zM452.82680379 425.23016836l10.79491351 20.53264323H324.102552l-10.79491354-20.53264323zM79.99008262 251.7356373h121.55673958l10.7852146 20.52294431H103.37421245c-6.63407085 0-13.0450662 0.72742005-19.22328715 1.95918465l-11.6193229-22.10387053c2.46352924-0.2036776 4.94645633-0.37825843 7.45848022-0.37825843zM21.10785444 340.72335658v16.04203681c0 37.80644466 36.82685233 68.46477498 82.26635801 68.46477497h39.61044638l10.79491352 20.53264323h-73.78948973a86.84425487 86.84425487 0 0 1-86.84425484-86.84425486v-20.34836349c0-38.85392953 25.53729317-71.73331572 60.73472457-82.82889621l12.55042058 23.86907654c-26.85634819 11.27016128-45.32311849 34.37302204-45.32311849 61.11298301zM292.75559735 425.23016836l10.79491354 20.53264323H174.33161346l-10.79491353-20.53264323zM638.24132469 425.23016836H473.37884489L392.96498325 272.26828052999997h164.86247981zM102.09395316 425.23016836c-45.43950571 0-82.26635804-30.65833031-82.26635801-68.45507604v-16.04203681c0-27.0891226 18.95171699-50.4344567 46.38030229-61.53973611l76.77676139 146.03684896h-40.89070567zM163.53669993 425.23016836l-79.51186077-151.25487543c5.81936039-1.07658167 11.85209733-1.70701238 18.069114-1.7070124h110.24778257l80.42356057 152.96188783H163.53669993zM313.30763846 425.23016836L232.89377684 272.26828052999997h139.5191653l80.41386165 152.96188783z"  horiz-adv-x="1024" />

    
    <glyph glyph-name="number" unicode="&#59682;" d="M527.675065-127.99921200000006c-282.308706 0-511.999606 229.6909-511.999606 511.999606S245.366359 896 527.675065 896a39.384585 39.384585 0 0 0 0-78.76917 433.703051 433.703051 0 0 1-433.230436-433.230436c0-238.828124 194.323543-433.230436 433.230436-433.230436 113.742682 0 221.341368 43.874428 302.78869 123.35252a435.908588 435.908588 0 0 1 101.690999 154.308805 39.384585 39.384585 0 1 0 73.570405-28.199363 514.835296 514.835296 0 0 0-120.122985-182.429398A509.636531 509.636531 0 0 0 527.675065-127.99921200000006zM317.046304 619.1263670000001a39.384585 39.384585 0 0 1-39.384585-39.384585v-393.767082a39.384585 39.384585 0 0 1 78.76917 0V579.7417820000001a39.384585 39.384585 0 0 1-39.384585 39.384585zM706.953696 621.410673a39.384585 39.384585 0 0 1-39.384585-39.384585v-393.767082a39.384585 39.384585 0 0 1 78.76917 0V582.0260880000001a39.384585 39.384585 0 0 1-39.384585 39.384585zM289.240787 605.656839a39.384585 39.384585 0 0 1 0-55.689804l389.828623-389.828623a39.384585 39.384585 0 0 1 55.689803 55.689804L344.93059 605.656839a39.384585 39.384585 0 0 1-55.689803 0z"  horiz-adv-x="1024" />

    
    <glyph glyph-name="github" unicode="&#59658;" d="M524.979332 896C234.676191 896 0 661.323809 0 371.020668c0-232.068678 150.366597-428.501342 358.967656-498.035028 26.075132-5.215026 35.636014 11.299224 35.636014 25.205961 0 12.168395-0.869171 53.888607-0.869171 97.347161-146.020741-31.290159-176.441729 62.580318-176.441729 62.580318-23.467619 60.841976-58.234462 76.487055-58.234463 76.487055-47.804409 32.15933 3.476684 32.15933 3.476685 32.15933 53.019436-3.476684 80.83291-53.888607 80.83291-53.888607 46.935238-79.963739 122.553122-57.365291 152.97411-43.458554 4.345855 33.897672 18.252593 57.365291 33.028501 70.402857-116.468925 12.168395-239.022047 57.365291-239.022047 259.012982 0 57.365291 20.860106 104.300529 53.888607 140.805715-5.215026 13.037566-23.467619 66.926173 5.215027 139.067372 0 0 44.327725 13.906737 144.282399-53.888607 41.720212 11.299224 86.917108 17.383422 131.244833 17.383422s89.524621-6.084198 131.244833-17.383422C756.178839 692.613968 800.506564 678.70723 800.506564 678.70723c28.682646-72.1412 10.430053-126.029806 5.215026-139.067372 33.897672-36.505185 53.888607-83.440424 53.888607-140.805715 0-201.64769-122.553122-245.975415-239.891218-259.012982 19.121764-16.514251 35.636014-47.804409 35.636015-97.347161 0-70.402857-0.869171-126.898978-0.869172-144.282399 0-13.906737 9.560882-30.420988 35.636015-25.205961 208.601059 69.533686 358.967656 265.96635 358.967655 498.035028C1049.958663 661.323809 814.413301 896 524.979332 896zM199.040177 142.428674c-0.869171-2.607513-5.215026-3.476684-8.691711-1.738342s-6.084198 5.215026-4.345855 7.82254c0.869171 2.607513 5.215026 3.476684 8.691711 1.738342s5.215026-5.215026 4.345855-7.82254z m-6.953369 4.345856M219.900283 118.96105499999999c-2.607513-2.607513-7.82254-0.869171-10.430053 2.607514-3.476684 3.476684-4.345855 8.691711-1.738342 11.299224 2.607513 2.607513 6.953369 0.869171 10.430053-2.607514 3.476684-4.345855 4.345855-9.560882 1.738342-11.299224z m-5.215026 5.215027M240.760389 88.54006800000002c-3.476684-2.607513-8.691711 0-11.299224 4.345855-3.476684 4.345855-3.476684 10.430053 0 12.168395 3.476684 2.607513 8.691711 0 11.299224-4.345855 3.476684-4.345855 3.476684-9.560882 0-12.168395z m0 0M269.443034 58.98825099999999c-2.607513-3.476684-8.691711-2.607513-13.906737 1.738342-4.345855 4.345855-6.084198 10.430053-2.607513 13.037566 2.607513 3.476684 8.691711 2.607513 13.906737-1.738342 4.345855-3.476684 5.215026-9.560882 2.607513-13.037566z m0 0M308.555733 42.474000000000046c-0.869171-4.345855-6.953369-6.084198-13.037566-4.345855-6.084198 1.738342-9.560882 6.953369-8.691711 10.430053 0.869171 4.345855 6.953369 6.084198 13.037566 4.345855 6.084198-1.738342 9.560882-6.084198 8.691711-10.430053z m0 0M351.145116 38.997315999999955c0-4.345855-5.215026-7.82254-11.299224-7.82254-6.084198 0-11.299224 3.476684-11.299224 7.82254s5.215026 7.82254 11.299224 7.82254c6.084198 0 11.299224-3.476684 11.299224-7.82254z m0 0M391.126986 45.95068500000002c0.869171-4.345855-3.476684-8.691711-9.560882-9.560882-6.084198-0.869171-11.299224 1.738342-12.168395 6.084197-0.869171 4.345855 3.476684 8.691711 9.560881 9.560882 6.084198 0.869171 11.299224-1.738342 12.168396-6.084197z m0 0"  horiz-adv-x="1049" />

    
    <glyph glyph-name="redo" unicode="&#59765;" d="M1000.666 896h-94.822c-13.706 0-24.628-11.458-23.972-25.148l7.932-165.518C798.832 812.202 663.344 880 512.002 880 238.68 880 15.798 656.948 16 383.626 16.202 109.86400000000003 238.192-112 512-112c127.852 0 244.404 48.374 332.356 127.816 10.226 9.236 10.708 25.122 0.964 34.866l-67.942 67.942c-8.932 8.932-23.28 9.434-32.76 1.086C682.616 65.10400000000004 601.212 32 512 32c-194.534 0-352 157.432-352 352 0 194.534 157.432 352 352 352 121.784 0 229.012-61.716 292.198-155.6l-203.05 9.73c-13.69 0.656-25.148-10.266-25.148-23.972v-94.822c0-13.254 10.746-24 24-24h400.666c13.254 0 24 10.746 24 24V872c0 13.254-10.746 24-24 24z"  horiz-adv-x="1024" />

    
    <glyph glyph-name="undo" unicode="&#59803;" d="M424.666 447.334H24c-13.254 0-24 10.746-24 24V872C0 885.254 10.746 896 24 896h96c13.254 0 24-10.746 24-24v-156.224C235.546 817.442 368.52 881.06 516.35 879.986c273.812-1.988 492.896-223.246 492.314-497.064C1008.082 109.48400000000004 786.24-112 512.666-112c-128.178 0-244.992 48.626-333.02 128.43-10.198 9.244-10.668 25.108-0.934 34.84l67.934 67.934c8.948 8.948 23.324 9.434 32.802 1.05C341.52 65.32799999999997 423.16 32 512.666 32c194.536 0 352 157.432 352 352 0 194.534-157.432 352-352 352-116.992 0-220.56-56.952-284.548-144.666h196.548c13.254 0 24-10.746 24-24v-96c0-13.254-10.746-24-24-24z"  horiz-adv-x="1024" />

    
    <glyph glyph-name="icons" unicode="&#59651;" d="M871.424 834.56q18.432 0 34.816-6.656t28.672-18.944 19.456-28.672 7.168-35.84v-720.896q0-38.912-25.088-64.512t-62.976-25.6h-721.92q-40.96 0-66.048 26.624t-25.088 66.56V745.472q0 35.84 24.576 62.464t65.536 26.624h720.896z m-237.568-768q18.432 0 26.624 8.704t8.192 23.04q0 13.312-8.192 22.528t-26.624 9.216h-62.464q1.024 2.048 1.024 6.144V644.096h63.488q18.432 0 25.6 9.216t7.168 22.528-7.168 22.528-25.6 9.216H386.048q-18.432 0-25.6-9.216t-7.168-22.528 7.168-22.528 25.6-9.216h57.344v-507.904q0-2.048 0.512-3.072t0.512-3.072h-56.32q-18.432 0-26.624-9.216t-8.192-22.528q0-14.336 8.192-23.04t26.624-8.704h245.76z"  horiz-adv-x="1024" />

    


  </font>
</defs>
</svg>
